<svg width="24" height="24" viewBox="0 0 24 24" fill="none" xmlns="http://www.w3.org/2000/svg">
<circle cx="12" cy="12" r="10.75" stroke="#D1A62C" stroke-width="2.5"/>
<path d="M12.0156 6.53124C14.3594 6.54686 16.5781 7.93749 16.5781 12.0469C16.5938 15.8906 14.7656 18.1562 11.9219 18.1562C9.64062 18.1562 8.09375 16.7344 7.85938 14.8125H10.1719C10.3594 15.6406 11.0156 16.1406 11.9219 16.1406C13.4688 16.1406 14.2812 14.7656 14.2812 12.5H14.1875C13.6562 13.5 12.5469 14.0937 11.2812 14.0937C9.25 14.0937 7.75 12.5625 7.73438 10.4531C7.73438 8.17186 9.45312 6.51561 12.0156 6.53124ZM12.0312 8.37499C10.875 8.37499 10.0156 9.26561 10.0312 10.3906C10.0312 11.5 10.8594 12.375 12.0156 12.375C13.1562 12.375 14.0469 11.4687 14.0469 10.375C14.0312 9.29686 13.1875 8.37499 12.0312 8.37499Z" fill="#D1A62C"/>
</svg>
