<svg width="466" height="48" viewBox="0 0 466 48" fill="none" xmlns="http://www.w3.org/2000/svg">
<path d="M19.5382 24.6055C18.8524 18.3656 25.3883 13.3534 34.1423 13.4296C42.8963 13.4973 50.5497 18.6112 51.2354 24.8426C51.9212 31.0909 45.3853 36.0862 36.6313 36.0185C27.8773 35.9592 20.2239 30.8454 19.5382 24.6055ZM52.8694 26.5443C52.082 18.8059 43.2688 12.4644 33.1941 12.3797C23.1109 12.2951 15.593 18.5011 16.3803 26.2396C17.1677 33.978 25.9809 40.3195 36.0556 40.4042C46.1303 40.4804 53.6652 34.2828 52.8694 26.5443Z" fill="#FBB584"/>
<path d="M37.6557 40.5566C32.6946 45.7466 24.7279 46.1784 19.8599 41.5218C15.0003 36.8651 15.0765 28.8896 20.0462 23.708C25.0073 18.5265 32.9824 18.0947 37.8335 22.7429C42.6931 27.3995 42.6169 35.375 37.6473 40.5566M19.2757 23.5387C13.5103 29.5669 13.4172 38.8378 19.0641 44.248C24.711 49.6581 33.973 49.1586 39.7384 43.1304C45.5123 37.1022 45.6054 27.8313 39.9501 22.4211C34.3031 17.011 25.0412 17.5105 19.2673 23.5387" fill="#F89B6C"/>
<path d="M19.8006 4.13328C30.1209 0.26405 40.331 4.17561 42.6 12.8708C44.8689 21.566 38.3415 31.7598 28.0213 35.6205C17.701 39.4898 7.49088 35.5782 5.22195 26.883C2.94456 18.1878 9.48042 8.00251 19.8006 4.13328ZM10.217 7.45219C-0.49269 15.9357 -3.21879 28.2207 4.12136 34.8924C11.47 41.5725 26.0995 40.1078 36.8176 31.6243C47.5272 23.1492 50.2533 10.8642 42.9047 4.18408C35.5561 -2.48759 20.9182 -1.02287 10.217 7.45219Z" fill="#F37321"/>
<path d="M77.5228 14.3863V33.5801H74.5173V23.454H63.1388V33.5801H60.1333V14.3863H63.1388V20.8294H74.5173V14.3863H77.5228Z" fill="white"/>
<path d="M84.7359 33.5801C83.3305 33.5801 82.2215 33.1906 81.4003 32.4032C80.5621 31.6158 80.1473 30.6083 80.1473 29.3722V28.3477C80.1473 27.0947 80.5621 26.0787 81.4003 25.2913C82.2215 24.487 83.3305 24.089 84.7359 24.089H92.5756V24.0128C92.5756 22.4719 91.729 21.7099 90.0442 21.7099H81.3241V19.153H89.9934C91.7967 19.153 93.1767 19.6102 94.1249 20.5331C95.09 21.4221 95.581 22.709 95.581 24.3938V29.4823C95.581 30.7861 95.1408 31.8106 94.2519 32.5641C93.4476 33.2499 92.3216 33.5886 90.8654 33.5886H84.7275L84.7359 33.5801ZM90.2304 26.6375H85.4725C83.9316 26.6375 83.1697 27.2894 83.1697 28.5933V29.0674C83.1697 30.3543 83.9401 30.9978 85.4725 30.9978H90.2304C91.7967 30.9978 92.584 30.3543 92.584 29.0674V28.5933C92.584 27.2894 91.7967 26.6375 90.2304 26.6375Z" fill="white"/>
<path d="M107.341 19.1445C109.212 19.1445 110.685 19.6864 111.751 20.7701C112.818 21.8539 113.351 23.3694 113.351 25.3082V33.5801H110.346V25.4606C110.346 24.2584 110.109 23.3778 109.643 22.8275C109.059 22.1079 108.213 21.7523 107.112 21.7523H104.555C103.488 21.7523 102.65 22.1079 102.049 22.8275C101.617 23.3778 101.397 24.2584 101.397 25.4606V33.5801H98.3918V25.3082C98.3918 23.3694 98.9252 21.8623 99.9919 20.7701C101.059 19.6864 102.523 19.1445 104.377 19.1445H107.341Z" fill="white"/>
<path d="M127.211 31.6497C126.144 32.9366 124.815 33.5801 123.223 33.5801H121.369C119.701 33.5801 118.372 33.0552 117.381 32.0053C116.442 31.0232 115.976 29.6262 115.976 27.8228V19.153H118.956V27.8482C118.956 28.8981 119.185 29.6685 119.633 30.1511C120.15 30.7014 120.827 30.9808 121.665 30.9808H122.969C123.824 30.9808 124.51 30.7014 125.026 30.1511C125.492 29.6685 125.729 28.8981 125.729 27.8482V19.153H128.684V27.8482C128.684 28.8981 128.912 29.6685 129.361 30.1511C129.877 30.7014 130.555 30.9808 131.393 30.9808H132.697C133.552 30.9808 134.237 30.7014 134.754 30.1511C135.219 29.6685 135.457 28.8981 135.457 27.8482V19.153H138.437V27.8228C138.437 29.6262 137.954 31.0232 136.98 32.0053C135.998 33.0552 134.661 33.5801 132.968 33.5801H131.139C129.581 33.5801 128.277 32.9366 127.202 31.6497H127.211Z" fill="white"/>
<path d="M147.267 21.7523C146.2 21.7523 145.362 22.1079 144.761 22.8275C144.329 23.3778 144.109 24.2584 144.109 25.4606V33.5801H141.103V14.3355H144.109V20.0251C144.981 19.4409 145.972 19.1445 147.089 19.1445H150.044C151.915 19.1445 153.388 19.6864 154.455 20.7701C155.521 21.8539 156.055 23.3694 156.055 25.3082V33.5801H153.049V25.4606C153.049 24.2584 152.812 23.3778 152.346 22.8275C151.762 22.1079 150.916 21.7523 149.815 21.7523H147.258H147.267Z" fill="white"/>
<path d="M163.124 33.5801C161.719 33.5801 160.609 33.1906 159.788 32.4032C158.95 31.6158 158.535 30.6083 158.535 29.3722V28.3477C158.535 27.0947 158.95 26.0787 159.788 25.2913C160.609 24.487 161.719 24.089 163.124 24.089H170.964V24.0128C170.964 22.4719 170.117 21.7099 168.432 21.7099H159.712V19.153H168.381C170.185 19.153 171.565 19.6102 172.513 20.5331C173.478 21.4221 173.969 22.709 173.969 24.3938V29.4823C173.969 30.7861 173.529 31.8106 172.64 32.5641C171.836 33.2499 170.71 33.5886 169.253 33.5886H163.115L163.124 33.5801ZM168.61 26.6375H163.852C162.311 26.6375 161.549 27.2894 161.549 28.5933V29.0674C161.549 30.3543 162.32 30.9978 163.852 30.9978H168.61C170.176 30.9978 170.964 30.3543 170.964 29.0674V28.5933C170.964 27.2894 170.176 26.6375 168.61 26.6375Z" fill="white"/>
<path d="M193.822 14.3101C194.169 14.3101 194.499 14.4033 194.796 14.5895C195.092 14.7758 195.363 15.0806 195.6 15.5208L204.743 33.5886H201.433L199.003 28.7541H188.675L186.245 33.5886H182.935L192.078 15.5208C192.315 15.0891 192.578 14.7758 192.882 14.5895C193.187 14.4033 193.492 14.3101 193.814 14.3101H193.822ZM197.708 26.1634L193.848 18.4672L189.987 26.1634H197.708Z" fill="white"/>
<path d="M215.826 25.0796C217.443 25.0796 218.636 25.3336 219.381 25.8332C220.33 26.4682 220.812 27.4587 220.812 28.8134V29.8887C220.812 31.2264 220.338 32.2085 219.381 32.8435C218.628 33.3261 217.434 33.5716 215.8 33.5716H206.225V30.9639H215.8C217.121 30.9639 217.781 30.5152 217.781 29.6093V29.0335C217.781 28.1191 217.121 27.6535 215.8 27.6535H210.839C209.239 27.6535 208.054 27.4079 207.309 26.9253C206.377 26.2904 205.903 25.3082 205.903 23.9705V22.8698C205.903 21.4983 206.369 20.5077 207.309 19.8896C208.062 19.3901 209.239 19.1361 210.839 19.1361H220.008V21.7438H210.89C209.586 21.7438 208.934 22.201 208.934 23.1238V23.725C208.934 24.6309 209.578 25.0796 210.864 25.0796H215.826Z" fill="white"/>
<path d="M233.02 25.0796C234.637 25.0796 235.831 25.3336 236.576 25.8332C237.524 26.4682 238.007 27.4587 238.007 28.8134V29.8887C238.007 31.2264 237.533 32.2085 236.576 32.8435C235.823 33.3261 234.629 33.5716 232.995 33.5716H223.42V30.9639H232.995C234.316 30.9639 234.976 30.5152 234.976 29.6093V29.0335C234.976 28.1191 234.316 27.6535 232.995 27.6535H228.034C226.434 27.6535 225.248 27.4079 224.503 26.9253C223.564 26.2904 223.098 25.3082 223.098 23.9705V22.8698C223.098 21.4983 223.564 20.5077 224.503 19.8896C225.257 19.3901 226.434 19.1361 228.034 19.1361H237.203V21.7438H228.085C226.781 21.7438 226.129 22.201 226.129 23.1238V23.725C226.129 24.6309 226.772 25.0796 228.059 25.0796H233.02Z" fill="white"/>
<path d="M255.921 24.4023C255.921 25.6384 255.498 26.646 254.643 27.4333C253.822 28.2207 252.713 28.6102 251.307 28.6102H243.484V28.7118C243.484 30.2358 244.331 30.9893 246.016 30.9893H255.235V33.5716H246.041C244.255 33.5716 242.875 33.1229 241.91 32.217C240.962 31.328 240.479 30.0495 240.479 28.3816V23.3948C240.479 22.1417 240.894 21.1257 241.732 20.3383C242.553 19.534 243.671 19.1361 245.093 19.1361H251.282C252.704 19.1361 253.822 19.534 254.643 20.3383C255.498 21.1257 255.921 22.1417 255.921 23.3948V24.4023ZM245.796 26.0618H250.579C252.128 26.0618 252.907 25.4183 252.907 24.1314V23.6572C252.907 22.3534 252.128 21.7015 250.579 21.7015H245.796C244.255 21.7015 243.493 22.3534 243.493 23.6572V24.1314C243.493 25.4183 244.263 26.0618 245.796 26.0618Z" fill="white"/>
<path d="M265.319 19.1445H269.831V21.6761H265.319V33.5801H262.288V21.6761H257.775V19.1445H262.288V15.8849H265.319V19.1445Z" fill="white"/>
<path d="M290.226 33.1314C289.506 33.1314 288.914 32.7334 288.448 31.9291L282.158 20.8294V33.5886H279.152V16.2998C279.169 14.9959 279.711 14.344 280.778 14.344C281.464 14.344 282.039 14.7419 282.505 15.5462L290.226 29.3045L297.973 15.5462C298.438 14.7419 298.997 14.344 299.649 14.344C300.733 14.344 301.291 14.9959 301.325 16.2998V33.5886H298.32V20.8294L292.004 31.9291C291.538 32.7334 290.946 33.1314 290.226 33.1314Z" fill="white"/>
<path d="M308.521 33.5801C307.116 33.5801 306.007 33.1906 305.186 32.4032C304.348 31.6158 303.933 30.6083 303.933 29.3722V28.3477C303.933 27.0947 304.348 26.0787 305.186 25.2913C306.007 24.487 307.116 24.089 308.521 24.089H316.361V24.0128C316.361 22.4719 315.514 21.7099 313.83 21.7099H305.11V19.153H313.779C315.582 19.153 316.962 19.6102 317.91 20.5331C318.875 21.4221 319.366 22.709 319.366 24.3938V29.4823C319.366 30.7861 318.926 31.8106 318.037 32.5641C317.233 33.2499 316.107 33.5886 314.651 33.5886H308.513L308.521 33.5801ZM314.007 26.6375H309.249C307.709 26.6375 306.947 27.2894 306.947 28.5933V29.0674C306.947 30.3543 307.717 30.9978 309.249 30.9978H314.007C315.574 30.9978 316.361 30.3543 316.361 29.0674V28.5933C316.361 27.2894 315.574 26.6375 314.007 26.6375Z" fill="white"/>
<path d="M331.126 19.1445C332.997 19.1445 334.47 19.6864 335.537 20.7701C336.604 21.8539 337.137 23.3694 337.137 25.3082V33.5801H334.131V25.4606C334.131 24.2584 333.894 23.3778 333.429 22.8275C332.845 22.1079 331.998 21.7523 330.897 21.7523H328.341C327.274 21.7523 326.436 22.1079 325.835 22.8275C325.403 23.3778 325.183 24.2584 325.183 25.4606V33.5801H322.177V25.3082C322.177 23.3694 322.711 21.8623 323.777 20.7701C324.844 19.6864 326.309 19.1445 328.163 19.1445H331.126Z" fill="white"/>
<path d="M344.206 33.5801C342.801 33.5801 341.692 33.1906 340.87 32.4032C340.032 31.6158 339.617 30.6083 339.617 29.3722V28.3477C339.617 27.0947 340.032 26.0787 340.87 25.2913C341.692 24.487 342.801 24.089 344.206 24.089H352.054V24.0128C352.054 22.4719 351.208 21.7099 349.523 21.7099H340.803V19.153H349.472C351.275 19.153 352.655 19.6102 353.604 20.5331C354.569 21.4221 355.06 22.709 355.06 24.3938V29.4823C355.06 30.7861 354.619 31.8106 353.731 32.5641C352.926 33.2499 351.8 33.5886 350.344 33.5886H344.206V33.5801ZM349.692 26.6375H344.934C343.393 26.6375 342.631 27.2894 342.631 28.5933V29.0674C342.631 30.3543 343.402 30.9978 344.934 30.9978H349.692C351.258 30.9978 352.046 30.3543 352.046 29.0674V28.5933C352.046 27.2894 351.258 26.6375 349.692 26.6375Z" fill="white"/>
<path d="M373.296 25.0373V33.5547C373.296 35.2734 372.83 36.5519 371.89 37.3901C370.985 38.279 369.588 38.7193 367.683 38.7193H359.217V36.1116H367.759C369.444 36.1116 370.29 35.3665 370.29 33.8849V32.8858C369.74 33.3515 368.834 33.5886 367.581 33.5886H363.594C361.824 33.5886 360.419 33.0721 359.386 32.0307C358.37 31.0147 357.854 29.5754 357.854 27.7212V25.0373C357.854 23.1662 358.362 21.7184 359.386 20.7024C360.419 19.6695 361.824 19.153 363.594 19.153H367.53C369.3 19.153 370.705 19.6695 371.738 20.7024C372.771 21.7353 373.287 23.1831 373.287 25.0373H373.296ZM370.29 27.5688V25.2151C370.29 24.1314 370.087 23.3101 369.689 22.7598C369.173 22.0909 368.385 21.7607 367.336 21.7607H363.805C362.755 21.7607 361.977 22.0994 361.477 22.7598C361.079 23.3101 360.876 24.1314 360.876 25.2151V27.5688C360.876 28.6356 361.079 29.4484 361.477 29.9987C361.977 30.6506 362.755 30.9724 363.805 30.9724H367.336C368.385 30.9724 369.173 30.6506 369.689 29.9987C370.087 29.4484 370.29 28.6356 370.29 27.5688Z" fill="white"/>
<path d="M391.346 23.4032V24.4023C391.346 25.6384 390.922 26.646 390.067 27.4333C389.246 28.2207 388.137 28.6102 386.732 28.6102H378.917V28.7118C378.917 30.2358 379.764 30.9893 381.449 30.9893H390.668V33.5716H381.474C379.688 33.5716 378.308 33.1229 377.343 32.217C376.394 31.328 375.912 30.0495 375.912 28.3816V23.3948C375.912 22.1417 376.327 21.1257 377.165 20.3383C377.986 19.534 379.104 19.1361 380.526 19.1361H386.715C388.137 19.1361 389.254 19.534 390.076 20.3383C390.931 21.1257 391.354 22.1417 391.354 23.3948L391.346 23.4032ZM381.22 26.0618H386.003C387.561 26.0618 388.332 25.4183 388.332 24.1314V23.6572C388.332 22.3534 387.553 21.7015 386.003 21.7015H381.22C379.679 21.7015 378.917 22.3534 378.917 23.6572V24.1314C378.917 25.4183 379.688 26.0618 381.22 26.0618Z" fill="white"/>
<path d="M405.12 21.0749C406.187 19.788 407.499 19.1445 409.057 19.1445H410.885C412.57 19.1445 413.908 19.6695 414.898 20.7193C415.864 21.7099 416.355 23.0984 416.355 24.9018V33.5716H413.374V24.8764C413.374 23.8266 413.137 23.0561 412.672 22.5735C412.155 22.0232 411.47 21.7438 410.615 21.7438H409.311C408.473 21.7438 407.795 22.0232 407.279 22.5735C406.83 23.0561 406.602 23.8266 406.602 24.8764V33.5716H403.647V24.8764C403.647 23.8266 403.41 23.0561 402.944 22.5735C402.428 22.0232 401.742 21.7438 400.887 21.7438H399.583C398.745 21.7438 398.068 22.0232 397.551 22.5735C397.103 23.0561 396.874 23.8266 396.874 24.8764V33.5716H393.894V24.9018C393.894 23.0984 394.36 21.7015 395.299 20.7193C396.281 19.6695 397.611 19.1445 399.287 19.1445H401.141C402.733 19.1445 404.053 19.788 405.128 21.0749H405.12Z" fill="white"/>
<path d="M434.447 24.4023C434.447 25.6384 434.023 26.646 433.168 27.4333C432.347 28.2207 431.238 28.6102 429.833 28.6102H422.01V28.7118C422.01 30.2358 422.857 30.9893 424.541 30.9893H433.761V33.5716H424.567C422.78 33.5716 421.4 33.1229 420.435 32.217C419.487 31.328 419.004 30.0495 419.004 28.3816V23.3948C419.004 22.1417 419.419 21.1257 420.257 20.3383C421.079 19.534 422.196 19.1361 423.618 19.1361H429.807C431.23 19.1361 432.347 19.534 433.168 20.3383C434.023 21.1257 434.447 22.1417 434.447 23.3948V24.4023ZM424.321 26.0618H429.105C430.654 26.0618 431.433 25.4183 431.433 24.1314V23.6572C431.433 22.3534 430.654 21.7015 429.105 21.7015H424.321C422.78 21.7015 422.018 22.3534 422.018 23.6572V24.1314C422.018 25.4183 422.789 26.0618 424.321 26.0618Z" fill="white"/>
<path d="M445.995 19.1445C447.866 19.1445 449.339 19.6864 450.405 20.7701C451.472 21.8539 452.005 23.3694 452.005 25.3082V33.5801H449V25.4606C449 24.2584 448.763 23.3778 448.297 22.8275C447.713 22.1079 446.867 21.7523 445.766 21.7523H443.209C442.142 21.7523 441.304 22.1079 440.703 22.8275C440.271 23.3778 440.051 24.2584 440.051 25.4606V33.5801H437.046V25.3082C437.046 23.3694 437.579 21.8623 438.646 20.7701C439.713 19.6864 441.177 19.1445 443.031 19.1445H445.995Z" fill="white"/>
<path d="M461.488 19.1445H466V21.6761H461.488V33.5801H458.457V21.6761H453.944V19.1445H458.457V15.8849H461.488V19.1445Z" fill="white"/>
</svg>
