<svg width="30" height="30" viewBox="0 0 30 30" fill="none" xmlns="http://www.w3.org/2000/svg">
<path d="M9.3054 1.34616C7.84239 1.41519 6.8433 1.64867 5.9699 1.99187C5.06596 2.34414 4.2998 2.81687 3.5375 3.58192C2.77519 4.34697 2.30576 5.11368 1.95595 6.01898C1.61743 6.89431 1.38807 7.89421 1.32345 9.35804C1.25882 10.8219 1.24452 11.2924 1.25167 15.0264C1.25882 18.7603 1.27532 19.2284 1.34627 20.6952C1.41612 22.158 1.64878 23.1568 1.99198 24.0304C2.34481 24.9344 2.81699 25.7002 3.58232 26.4628C4.34765 27.2254 5.11381 27.6937 6.02132 28.0441C6.89583 28.3821 7.89602 28.6125 9.35958 28.6766C10.8231 28.7407 11.2942 28.7555 15.0271 28.7484C18.76 28.7412 19.23 28.7247 20.6966 28.6551C22.1632 28.5856 23.1567 28.3513 24.0307 28.0097C24.9346 27.6561 25.7011 27.1847 26.4631 26.4191C27.2251 25.6535 27.6943 24.8862 28.0438 23.9804C28.3826 23.1059 28.6128 22.1057 28.6763 20.6433C28.7404 19.1756 28.7555 18.707 28.7484 14.9736C28.7412 11.2401 28.7245 10.7721 28.6549 9.30579C28.5853 7.83949 28.3524 6.84371 28.0094 5.96948C27.6561 5.06555 27.1844 4.30022 26.4194 3.5371C25.6543 2.77397 24.8865 2.30509 23.9809 1.95639C23.1059 1.61787 22.1062 1.38714 20.6427 1.32389C19.1791 1.26064 18.708 1.24441 14.9738 1.25156C11.2395 1.25871 10.772 1.27466 9.3054 1.34616ZM9.46601 26.203C8.12537 26.1446 7.39743 25.9219 6.91233 25.7354C6.26992 25.4879 5.81232 25.1887 5.32886 24.71C4.84541 24.2312 4.54841 23.7719 4.2976 23.1309C4.10923 22.6458 3.88235 21.9187 3.81965 20.5781C3.75145 19.1291 3.73715 18.694 3.72917 15.0231C3.7212 11.3521 3.73522 10.9176 3.79875 9.46804C3.85595 8.12851 4.08008 7.39976 4.26625 6.91493C4.51376 6.27171 4.81186 5.81493 5.29174 5.33175C5.77162 4.84858 6.2295 4.55103 6.87108 4.30022C7.35563 4.11102 8.08274 3.88607 9.42283 3.82227C10.8729 3.75352 11.3074 3.73977 14.9779 3.7318C18.6483 3.72382 19.084 3.73757 20.5346 3.80137C21.8741 3.85967 22.6032 4.0816 23.0874 4.26887C23.7301 4.51638 24.1875 4.81365 24.6706 5.29435C25.1538 5.77506 25.4516 6.23128 25.7024 6.87423C25.8919 7.35741 26.1169 8.08424 26.1801 9.42514C26.2491 10.8752 26.2648 11.31 26.2714 14.9802C26.278 18.6503 26.2651 19.0862 26.2016 20.5352C26.143 21.8758 25.9208 22.604 25.7341 23.0897C25.4866 23.7318 25.1882 24.1897 24.708 24.6726C24.2279 25.1555 23.7706 25.453 23.1287 25.7038C22.6447 25.8927 21.9168 26.1182 20.5778 26.1821C19.1277 26.2502 18.6932 26.2645 15.0213 26.2725C11.3495 26.2805 10.9164 26.2657 9.46628 26.203M20.6754 7.65111C20.6759 7.97747 20.7733 8.29635 20.955 8.5674C21.1368 8.83845 21.3949 9.0495 21.6966 9.17387C21.9984 9.29823 22.3302 9.33032 22.6502 9.26608C22.9702 9.20184 23.2639 9.04414 23.4943 8.81295C23.7246 8.58175 23.8813 8.28744 23.9443 7.96722C24.0074 7.64701 23.9741 7.31529 23.8486 7.01401C23.7231 6.71273 23.5111 6.45542 23.2394 6.27464C22.9677 6.09385 22.6485 5.9977 22.3221 5.99836C21.8846 5.99923 21.4653 6.17383 21.1565 6.48377C20.8477 6.79371 20.6747 7.2136 20.6754 7.65111ZM7.94002 15.0137C7.94772 18.9132 11.1146 22.0672 15.0134 22.0598C18.9121 22.0524 22.0683 18.8857 22.0609 14.9862C22.0534 11.0867 18.8857 7.93189 14.9864 7.93959C11.0871 7.94729 7.93259 11.1147 7.94002 15.0137ZM10.4167 15.0088C10.4149 14.1022 10.682 13.2156 11.1841 12.4608C11.6863 11.7061 12.4009 11.1172 13.2378 10.7686C14.0746 10.4201 14.996 10.3275 15.8854 10.5026C16.7749 10.6777 17.5925 11.1126 18.2347 11.7523C18.877 12.392 19.3152 13.2079 19.4938 14.0966C19.6724 14.9854 19.5834 15.9071 19.2382 16.7453C18.8929 17.5835 18.3069 18.3005 17.5541 18.8056C16.8014 19.3108 15.9158 19.5813 15.0092 19.5831C14.4073 19.5844 13.811 19.4671 13.2544 19.2379C12.6979 19.0086 12.1919 18.672 11.7654 18.2473C11.3389 17.8225 11.0003 17.3178 10.7689 16.7622C10.5375 16.2065 10.4178 15.6107 10.4167 15.0088Z" fill="white"/>
</svg>
