<svg width="160" height="40" viewBox="0 0 160 40" fill="none" xmlns="http://www.w3.org/2000/svg">
<path d="M16.6346 20.548C16.0759 15.4643 21.401 11.3877 28.5402 11.4429C35.6726 11.4981 41.9082 15.6643 42.4669 20.7411C43.0325 25.8248 37.7005 29.9015 30.5613 29.8463C23.4289 29.7911 17.1933 25.6317 16.6346 20.5411M43.7913 22.1276C43.1429 15.8299 35.9692 10.6634 27.7608 10.5944C19.5524 10.5255 13.4202 15.5816 14.0617 21.8862C14.7032 28.1908 21.8838 33.3573 30.0991 33.4193C38.3075 33.4883 44.4397 28.4322 43.7982 22.1276" fill="#FBB584"/>
<path d="M31.3965 33.5537C27.3544 37.7751 20.8635 38.1269 16.9111 34.3331C12.9448 30.5462 13.0138 24.0416 17.0559 19.8201C21.0981 15.5986 27.5889 15.2538 31.5483 19.0407C35.5076 22.8345 35.4455 29.3322 31.3965 33.5537ZM16.4213 19.6822C11.7239 24.5934 11.6481 32.1465 16.2489 36.5542C20.8566 40.9619 28.396 40.555 33.1003 35.6437C37.8046 30.7325 37.8805 23.1794 33.2727 18.7716C28.6719 14.3639 21.1257 14.7709 16.4282 19.6822" fill="#F89B6C"/>
<path d="M16.8493 3.87082C25.2578 0.718511 33.5766 3.9053 35.4252 10.9894C37.2738 18.0734 31.9556 26.3715 23.5471 29.5238C15.1387 32.683 6.82681 29.4893 4.9713 22.4053C3.11579 15.3212 8.4409 7.02312 16.8493 3.87082ZM9.04101 6.58166C0.308374 13.4864 -1.90583 23.4951 4.07458 28.9306C10.055 34.3661 21.9813 33.1797 30.714 26.268C39.4397 19.3564 41.6608 9.34768 35.6735 3.9122C29.6862 -1.52328 17.7668 -0.329958 9.04101 6.58166Z" fill="#F37321"/>
<path d="M150.384 22.3643C152.384 22.3643 153.95 22.6127 155.074 23.1162C156.199 23.6129 156.765 24.3929 156.765 25.4414C156.765 26.4897 156.198 27.269 155.074 27.7656C153.95 28.2691 152.384 28.5176 150.384 28.5176C148.383 28.5176 146.818 28.2692 145.693 27.7656C144.569 27.2621 144.003 26.4897 144.003 25.4414C144.003 24.3929 144.569 23.6129 145.693 23.1162C146.818 22.6127 148.384 22.3643 150.384 22.3643ZM101.134 17.5088H103.534V19.3086H101.134V28.2559H98.8984V12.1426H101.134V17.5088ZM82.6748 17.5361H84.999V19.3154H82.6748V28.248H80.4404V25.2275C79.7645 25.8276 78.7638 26.1309 77.4395 26.1309H67.9824V24.3857H72.3145V22.6816C71.5143 22.5437 70.8312 22.2474 70.2725 21.7783C69.5 21.1437 69.1133 20.3781 69.1133 19.4883C69.1133 18.5986 69.5136 17.8328 70.3135 17.1914C71.1136 16.5499 72.1556 16.2256 73.4248 16.2256C74.694 16.2256 75.7359 16.5499 76.543 17.1914C77.343 17.8329 77.7432 18.5985 77.7432 19.4883C77.7432 20.3781 77.3566 21.1368 76.5771 21.7783C76.0254 22.2266 75.3565 22.5299 74.5703 22.6816V24.3857H77.0674C79.3158 24.3856 80.4404 23.5165 80.4404 21.7783V12.1348H82.6748V17.5361ZM109.97 25.1445C109.97 26.0343 110.397 26.4756 111.267 26.4756H119.992V28.2207H110.722C108.721 28.2207 107.721 27.2899 107.721 25.4277V22.9307H109.97V25.1445ZM127.814 25.0547C127.814 26.0066 128.249 26.4824 129.125 26.4824V26.4756H138.265V28.2207H128.414C126.51 28.2206 125.565 27.2276 125.565 25.2412V23.3301H127.814V25.0547ZM54.2002 25.1582C54.2002 26.0479 54.6282 26.4891 55.4971 26.4893H64.2158V28.2139H54.9453C52.9453 28.2138 51.9455 27.2829 51.9453 25.4209V23.6201H54.2002V25.1582ZM150.363 24.0752C149.115 24.0752 148.156 24.1788 147.418 24.3926C146.68 24.6064 146.314 24.9653 146.314 25.4619C146.315 25.9585 146.687 26.296 147.418 26.5029C148.156 26.7099 149.135 26.8135 150.363 26.8135C151.612 26.8135 152.605 26.7098 153.336 26.5029C154.067 26.296 154.433 25.9516 154.433 25.4619C154.433 24.9722 154.067 24.6064 153.336 24.3926C152.605 24.1788 151.612 24.0752 150.363 24.0752ZM96.8564 14.1494H93.0488V14.8594C93.0488 17.5012 93.5113 19.4745 94.4355 20.792C95.1874 21.8543 96.1122 22.6476 97.2158 23.1719V24.9375C95.5672 24.4271 94.132 23.4821 92.918 22.1025C92.5456 21.675 92.2212 21.1923 91.9453 20.6406C91.6694 21.1923 91.3451 21.675 90.9727 22.1025C89.7587 23.482 88.3242 24.4202 86.6758 24.9375V23.1719C87.7793 22.6477 88.7033 21.8541 89.4551 20.792C90.3794 19.4814 90.8418 17.5012 90.8418 14.8594H90.835V14.1494H87.0068V12.4043H96.8564V14.1494ZM140.044 21.9922H133.305V24.8613H131.057V21.9922H123.586V20.2266H140.044V21.9922ZM64.1338 16.2666H66.458V18.0332H64.1338V23.7168H61.8984V12.1426H64.1338V16.2666ZM119.709 16.2461H122.075V18.0264H119.709V23.71H117.475V12.1348H119.709V16.2461ZM54.7178 16.2324C55.9939 16.2324 57.029 16.5567 57.8291 17.1982C58.6291 17.8397 59.0293 18.6054 59.0293 19.4951C59.0293 20.3848 58.629 21.171 57.8291 21.8125C57.029 22.454 55.9939 22.7783 54.7178 22.7783C53.4418 22.7783 52.4076 22.4539 51.6006 21.8125C50.8004 21.171 50.4004 20.3987 50.4004 19.4951C50.4004 18.5915 50.8005 17.8397 51.6006 17.1982C52.4007 16.5569 53.4419 16.2325 54.7178 16.2324ZM111.48 13.2666H111.474C111.474 15.5427 111.991 17.3015 113.032 18.5361C113.86 19.5087 114.736 20.1507 115.66 20.4473V22.1924C114.219 21.9648 112.88 21.2337 111.646 19.999C111.149 19.4955 110.721 18.9296 110.369 18.2881C110.017 18.9226 109.597 19.4955 109.094 19.999C107.859 21.2406 106.521 21.9716 105.079 22.1924V20.4473C106.003 20.1506 106.879 19.5087 107.707 18.5361C108.742 17.2946 109.266 15.5427 109.266 13.2666V12.3838H111.48V13.2666ZM150.343 12.0869C152.467 12.0869 154.116 12.3421 155.247 12.8594C156.378 13.3698 156.943 14.1769 156.943 15.2803C156.943 16.3839 156.378 17.2191 155.254 17.7227C155.088 17.7985 154.86 17.8878 154.557 17.9844V19.7852H158.571V21.5508H142.113V19.7852H146.148V17.9844C145.9 17.9085 145.666 17.8192 145.452 17.7227C144.314 17.2192 143.748 16.419 143.748 15.3018L143.762 15.2939C143.762 14.2043 144.328 13.3972 145.459 12.873C146.59 12.3489 148.218 12.0869 150.343 12.0869ZM54.7178 17.7979C54.1315 17.7979 53.6277 17.9639 53.207 18.2881C52.7864 18.6123 52.5801 19.0124 52.5801 19.4883C52.5801 19.9641 52.7865 20.3848 53.207 20.709C53.6277 21.0331 54.1315 21.1992 54.7178 21.1992C55.3041 21.1992 55.8077 21.0332 56.2285 20.709C56.6492 20.3848 56.8564 19.978 56.8564 19.4883C56.8564 18.9985 56.6493 18.6123 56.2285 18.2881C55.8078 17.9639 55.3041 17.7979 54.7178 17.7979ZM73.4248 17.7979C72.8385 17.7979 72.3348 17.9639 71.9141 18.2881C71.4934 18.6123 71.2861 19.0124 71.2861 19.4883C71.2861 19.9641 71.4934 20.3848 71.9141 20.709C72.3348 21.0332 72.8385 21.1992 73.4248 21.1992C74.0111 21.1992 74.5148 21.0332 74.9355 20.709C75.3562 20.3848 75.5635 19.978 75.5635 19.4883C75.5635 18.9986 75.3563 18.6123 74.9355 18.2881C74.5148 17.9639 74.0111 17.7979 73.4248 17.7979ZM152.315 18.3848C151.715 18.433 151.06 18.4609 150.343 18.4609C149.625 18.4609 148.997 18.433 148.411 18.3848V19.7715H152.315V18.3848ZM131.808 12.1348C133.939 12.1348 135.567 12.4323 136.705 13.0186C137.843 13.6049 138.409 14.4943 138.409 15.6807C138.409 16.8671 137.843 17.7497 136.712 18.3223C135.581 18.8947 133.946 19.1846 131.808 19.1846C129.669 19.1845 128.048 18.8947 126.917 18.3223C125.857 17.7855 125.294 16.9822 125.228 15.9121L125.221 15.7012C125.221 14.5288 125.786 13.6391 126.917 13.0391C128.048 12.439 129.676 12.1348 131.808 12.1348ZM131.787 13.8525C130.449 13.8526 129.387 13.9906 128.642 14.2734C127.897 14.5562 127.524 15.0254 127.524 15.6875H127.531C127.531 16.3358 127.897 16.7983 128.635 17.0742C129.373 17.3501 130.421 17.4883 131.787 17.4883C133.153 17.4883 134.181 17.3501 134.946 17.0742C135.719 16.7983 136.099 16.3359 136.099 15.6875C136.099 15.0392 135.712 14.5493 134.946 14.2734C134.181 13.9907 133.125 13.8525 131.787 13.8525ZM150.329 13.7559C149.012 13.7559 147.977 13.8739 147.211 14.1016C146.452 14.3361 146.065 14.7361 146.065 15.3086C146.066 15.9085 146.446 16.3088 147.204 16.5088C147.963 16.7088 149.005 16.8115 150.329 16.8115C151.653 16.8115 152.687 16.7087 153.474 16.5088C154.253 16.3088 154.646 15.9085 154.646 15.3086C154.646 14.7085 154.253 14.3292 153.474 14.1016C152.694 13.8671 151.646 13.7559 150.329 13.7559ZM59.7676 15.6875H49.6758V14.0732H59.7676V15.6875ZM78.4326 15.6875H68.3408V14.0732H78.4326V15.6875ZM57.3115 13.4941H52.1309V11.8594H57.3115V13.4941ZM76.0117 13.4941H70.8311V11.8594H76.0117V13.4941Z" fill="white"/>
</svg>
