<svg width="192" height="48" viewBox="0 0 192 48" fill="none" xmlns="http://www.w3.org/2000/svg">
<path d="M19.9611 24.659C19.2906 18.5585 25.6808 13.6666 34.2479 13.7328C42.8067 13.799 50.2895 18.7986 50.9599 24.8907C51.6387 30.9912 45.2402 35.8831 36.6732 35.8169C28.1143 35.7507 20.6316 30.7594 19.9611 24.6507M52.5492 26.5545C51.7711 18.9972 43.1626 12.7975 33.3125 12.7147C23.4624 12.6319 16.1039 18.6993 16.8737 26.2648C17.6434 33.8303 26.2602 40.0301 36.1186 40.1046C45.9687 40.1873 53.3273 34.12 52.5575 26.5545" fill="#FBB584"/>
<path d="M37.6746 40.2621C32.8241 45.3278 25.0351 45.75 20.2921 41.1974C15.5326 36.6531 15.6154 28.8476 20.466 23.7818C25.3165 18.716 33.1055 18.3022 37.8567 22.8464C42.608 27.399 42.5335 35.1963 37.6746 40.2621ZM19.7044 23.6162C14.0675 29.5097 13.9765 38.5735 19.4975 43.8627C25.0268 49.152 34.074 48.6636 39.7192 42.7701C45.3643 36.8766 45.4554 27.8129 39.9261 22.5236C34.4051 17.2344 25.3496 17.7227 19.7127 23.6162" fill="#F89B6C"/>
<path d="M19.3614 4.04029C29.4515 0.257526 39.4341 4.08168 41.6524 12.5826C43.8707 21.0834 37.4889 31.0411 27.3987 34.8239C17.3086 38.6149 7.33436 34.7825 5.10775 26.2816C2.88113 17.7807 9.27127 7.82305 19.3614 4.04029ZM9.9914 7.2933C-0.487763 15.579 -3.1448 27.5894 4.03169 34.112C11.2082 40.6346 25.5198 39.2109 35.9989 30.917C46.4698 22.623 49.1352 10.6125 41.9504 4.08995C34.7656 -2.43262 20.4623 -1.00064 9.9914 7.2933Z" fill="#F37321"/>
<path d="M180.46 26.8359C182.86 26.836 184.739 27.1342 186.088 27.7383C187.437 28.3343 188.116 29.2702 188.116 30.5283C188.116 31.7864 187.437 32.7214 186.088 33.3174C184.739 33.9215 182.86 34.2197 180.46 34.2197C178.06 34.2197 176.18 33.9216 174.831 33.3174C173.482 32.7132 172.803 31.7864 172.803 30.5283C172.803 29.2702 173.482 28.3343 174.831 27.7383C176.18 27.1341 178.06 26.8359 180.46 26.8359ZM121.359 21.0088H124.239V23.1699H121.359V33.9053H118.677V14.5693H121.359V21.0088ZM99.209 21.042H101.998V23.1777H99.209V33.8975H96.5273V30.2715C95.7162 30.9915 94.5158 31.3554 92.9268 31.3555H81.5781V29.2617H86.7764V27.2168C85.8162 27.0513 84.9966 26.6956 84.3262 26.1328C83.3991 25.3713 82.9356 24.4525 82.9355 23.3848C82.9355 22.317 83.4158 21.3977 84.376 20.6279C85.336 19.8584 86.5857 19.4698 88.1084 19.4697C89.6314 19.4697 90.8821 19.8581 91.8506 20.6279C92.8108 21.3977 93.29 22.317 93.29 23.3848C93.29 24.4525 92.8269 25.363 91.8916 26.1328C91.2294 26.6708 90.426 27.0347 89.4824 27.2168V29.2617H92.4795C95.1778 29.2617 96.5273 28.2187 96.5273 26.1328V14.5615H99.209V21.042ZM131.963 30.1719C131.963 31.2397 132.476 31.7695 133.519 31.7695H143.989V33.8643H132.864C130.464 33.8641 129.264 32.7464 129.264 30.5117V27.5156H131.963V30.1719ZM153.376 30.0645C153.376 31.2066 153.897 31.7781 154.948 31.7783V31.7695H165.916V33.8643H154.096C151.811 33.8641 150.678 32.6718 150.678 30.2881V27.9951H153.376V30.0645ZM65.04 30.1885C65.04 31.2562 65.5529 31.7861 66.5957 31.7861H77.0586V33.8555H65.9336C63.5332 33.8554 62.333 32.7378 62.333 30.5029V28.3428H65.04V30.1885ZM180.435 28.8896C178.937 28.8897 177.786 29.013 176.9 29.2695C176.015 29.5261 175.576 29.9569 175.576 30.5527C175.576 31.1487 176.023 31.5544 176.9 31.8027C177.786 32.051 178.961 32.1758 180.435 32.1758C181.933 32.1758 183.125 32.051 184.002 31.8027C184.879 31.5544 185.318 31.1404 185.318 30.5527C185.318 29.9651 184.879 29.5261 184.002 29.2695C183.125 29.013 181.933 28.8896 180.435 28.8896ZM116.228 16.9785H111.658V17.8311C111.658 21.001 112.212 23.3683 113.321 24.9492C114.223 26.2238 115.333 27.1756 116.657 27.8047V29.9238C114.679 29.3113 112.958 28.1769 111.501 26.5215C111.054 26.0083 110.665 25.4288 110.334 24.7666C110.003 25.4286 109.614 26.0084 109.167 26.5215C107.71 28.1769 105.988 29.303 104.01 29.9238V27.8047C105.334 27.1756 106.443 26.2239 107.346 24.9492C108.455 23.3766 109.009 21.001 109.009 17.8311H109.001V16.9785H104.407V14.8838H116.228V16.9785ZM168.052 26.3896H159.965V29.833H157.267V26.3896H148.302V24.2705H168.052V26.3896ZM76.959 19.5195H79.749V21.6387H76.959V28.459H74.2773V14.5693H76.959V19.5195ZM143.65 19.4941H146.489V21.6299H143.65V28.4502H140.968V14.5615H143.65V19.4941ZM65.6602 19.4775C67.1915 19.4775 68.4334 19.8669 69.3936 20.6367C70.3536 21.4064 70.8339 22.325 70.834 23.3926C70.834 24.4603 70.3537 25.404 69.3936 26.1738C68.4334 26.9436 67.1915 27.333 65.6602 27.333C64.129 27.3329 62.8873 26.9436 61.9189 26.1738C60.959 25.4041 60.4785 24.4768 60.4785 23.3926C60.4786 22.3085 60.959 21.4064 61.9189 20.6367C62.879 19.867 64.129 19.4776 65.6602 19.4775ZM133.775 15.9189H133.767C133.767 18.6502 134.388 20.7606 135.638 22.2422C136.631 23.4092 137.682 24.1792 138.791 24.5352V26.6299C137.061 26.3567 135.455 25.4787 133.974 23.9971C133.378 23.3929 132.864 22.7141 132.442 21.9443C132.02 22.7058 131.515 23.3928 130.911 23.9971C129.429 25.487 127.824 26.365 126.094 26.6299V24.5352C127.203 24.1792 128.254 23.4093 129.247 22.2422C130.489 20.7523 131.118 18.6503 131.118 15.9189V14.8594H133.775V15.9189ZM180.41 14.5029C182.959 14.5029 184.937 14.809 186.295 15.4297C187.652 16.0422 188.331 17.0116 188.331 18.3359C188.331 19.66 187.653 20.6614 186.304 21.2656C186.105 21.3566 185.832 21.4642 185.468 21.5801V23.7402H190.285V25.8594H170.535V23.7402H175.377V21.5801C175.079 21.4891 174.798 21.3815 174.541 21.2656C173.175 20.6614 172.497 19.7012 172.497 18.3604L172.514 18.3525C172.514 17.0447 173.192 16.0754 174.55 15.4463C175.907 14.8173 177.861 14.5029 180.41 14.5029ZM65.6602 21.3564C64.9568 21.3565 64.3525 21.5554 63.8477 21.9443C63.3428 22.3334 63.0947 22.8136 63.0947 23.3848C63.0947 23.9558 63.3429 24.4606 63.8477 24.8496C64.3525 25.2386 64.9568 25.4374 65.6602 25.4375C66.3637 25.4375 66.9687 25.2386 67.4736 24.8496C67.9783 24.4606 68.2266 23.9723 68.2266 23.3848C68.2266 22.7971 67.9785 22.3334 67.4736 21.9443C66.9687 21.5553 66.3637 21.3564 65.6602 21.3564ZM88.1084 21.3564C87.405 21.3565 86.8007 21.5554 86.2959 21.9443C85.791 22.3334 85.543 22.8136 85.543 23.3848C85.543 23.9558 85.7911 24.4606 86.2959 24.8496C86.8007 25.2386 87.405 25.4374 88.1084 25.4375C88.812 25.4375 89.417 25.2386 89.9219 24.8496C90.4266 24.4606 90.6748 23.9723 90.6748 23.3848C90.6748 22.7971 90.4267 22.3334 89.9219 21.9443C89.417 21.5553 88.812 21.3564 88.1084 21.3564ZM182.777 22.0605C182.057 22.1185 181.271 22.1514 180.41 22.1514C179.55 22.1514 178.796 22.1185 178.093 22.0605V23.7236H182.777V22.0605ZM158.169 14.5615C160.726 14.5616 162.68 14.9166 164.046 15.6201C165.412 16.3237 166.09 17.3918 166.09 18.8154C166.09 20.2391 165.411 21.2993 164.054 21.9863C162.696 22.6732 160.735 23.0205 158.169 23.0205C155.603 23.0205 153.657 22.6733 152.3 21.9863C151.027 21.3423 150.351 20.3778 150.271 19.0938L150.264 18.8408C150.264 17.4337 150.942 16.3656 152.3 15.6455C153.657 14.9254 155.611 14.5615 158.169 14.5615ZM158.144 16.6221C156.538 16.6221 155.263 16.7876 154.369 17.127C153.475 17.4663 153.028 18.0296 153.028 18.8242H153.037C153.037 19.6021 153.476 20.1563 154.361 20.4873C155.247 20.8183 156.505 20.9844 158.144 20.9844C159.782 20.9844 161.016 20.8184 161.935 20.4873C162.862 20.1563 163.317 19.6021 163.317 18.8242C163.317 18.0461 162.853 17.458 161.935 17.127C161.016 16.7876 159.749 16.6221 158.144 16.6221ZM180.394 16.5059C178.813 16.5059 177.571 16.6468 176.652 16.9199C175.742 17.2013 175.279 17.6814 175.278 18.3682C175.278 19.0882 175.733 19.5685 176.644 19.8086C177.554 20.0486 178.804 20.1729 180.394 20.1729C181.983 20.1728 183.224 20.0486 184.168 19.8086C185.103 19.5685 185.575 19.0883 185.575 18.3682C185.575 17.6483 185.103 17.193 184.168 16.9199C183.233 16.6385 181.974 16.5059 180.394 16.5059ZM71.7197 18.8242H59.6094V16.8867H71.7197V18.8242ZM94.1182 18.8242H82.0088V16.8867H94.1182V18.8242ZM68.7725 16.1914H62.5566V14.2295H68.7725V16.1914ZM91.2129 16.1914H84.9961V14.2295H91.2129V16.1914Z" fill="#151414"/>
</svg>
