<svg width="30" height="30" viewBox="0 0 30 30" fill="none" xmlns="http://www.w3.org/2000/svg">
<path d="M8.9707 26.0195H4.42383V11.3916H8.9707V26.0195ZM20.5469 11.0273C25.1499 11.0275 26.0009 14.0573 26.001 17.9961V26.0195H21.457V18.9053C21.457 17.2086 21.4263 15.0264 19.0947 15.0264C16.7291 15.0264 16.3653 16.8744 16.3652 18.7822V26.0195H11.8223V11.3916H16.1836V13.3896H16.2451C16.8525 12.2401 18.3355 11.0273 20.5469 11.0273ZM6.65137 4C8.11236 4.00005 9.30078 5.18848 9.30078 6.64941C9.30071 8.11183 8.11231 9.29975 6.65137 9.2998C5.18575 9.2998 4.00007 8.11186 4 6.64941C4 5.18691 5.18725 4 6.65137 4Z" fill="white"/>
</svg>
