<svg width="30" height="30" viewBox="0 0 30 30" fill="none" xmlns="http://www.w3.org/2000/svg">
<path d="M15.002 5.3125C15.002 5.3125 23.5978 5.31247 25.7471 5.89453C26.9307 6.20984 27.8624 7.14651 28.1777 8.33984C28.75 10.4987 28.7451 15 28.7451 15C28.7451 15.0314 28.7432 19.509 28.1729 21.6602C27.8575 22.8486 26.9258 23.7853 25.7422 24.1055C23.6067 24.6802 15.0712 24.6826 14.998 24.6826C14.998 24.6826 6.39753 24.6827 4.25293 24.1055C3.0693 23.7902 2.13758 22.8535 1.82227 21.6602C1.25188 19.509 1.25001 15.0314 1.25 15C1.25 15 1.24997 10.4986 1.82715 8.33496C2.14246 7.14648 3.07418 6.20981 4.25781 5.88965C6.39314 5.31492 14.9289 5.31251 15.002 5.3125ZM12.1885 19.0889L19.3779 15L12.1885 10.9102V19.0889Z" fill="white"/>
</svg>
