<svg width="56" height="56" viewBox="0 0 56 56" fill="none" xmlns="http://www.w3.org/2000/svg">
<path d="M42 24C42 14.0589 33.9411 6 24 6C14.0589 6 6 14.0589 6 24C6 33.9411 14.0589 42 24 42V44C12.9543 44 4 35.0457 4 24C4 12.9543 12.9543 4 24 4C35.0457 4 44 12.9543 44 24C44 35.0457 35.0457 44 24 44V42C33.9411 42 42 33.9411 42 24Z" fill="#C3C1C1"/>
<path d="M52.707 51.293L51.293 52.707L36.293 37.707L37.707 36.293L52.707 51.293Z" fill="#C3C1C1"/>
<path d="M24 27C26.7614 27 29 29.2386 29 32H27C27 30.3431 25.6569 29 24 29C22.3431 29 21 30.3431 21 32H19C19 29.2386 21.2386 27 24 27ZM19.707 19.707L17.4141 22L19.707 24.293L18.293 25.707L16 23.4141L13.707 25.707L12.293 24.293L14.5859 22L12.293 19.707L13.707 18.293L16 20.5859L18.293 18.293L19.707 19.707ZM34.707 19.707L32.4141 22L34.707 24.293L33.293 25.707L31 23.4141L28.707 25.707L27.293 24.293L29.5859 22L27.293 19.707L28.707 18.293L31 20.5859L33.293 18.293L34.707 19.707Z" fill="#C3C1C1"/>
</svg>
