<svg width="24" height="24" viewBox="0 0 24 24" fill="none" xmlns="http://www.w3.org/2000/svg">
<path d="M21 7.25V8.75H18V7.25H21Z" fill="#151414"/>
<path d="M14 7.25V8.75H3V7.25H14Z" fill="#151414"/>
<path d="M7 15.25V16.75H3V15.25H7Z" fill="#151414"/>
<path d="M21 15.25V16.75H11V15.25H21Z" fill="#151414"/>
<path d="M17.5 8C17.5 7.17157 16.8284 6.5 16 6.5C15.1716 6.5 14.5 7.17157 14.5 8C14.5 8.82843 15.1716 9.5 16 9.5V11C14.3431 11 13 9.65685 13 8C13 6.34315 14.3431 5 16 5C17.6569 5 19 6.34315 19 8C19 9.65685 17.6569 11 16 11V9.5C16.8284 9.5 17.5 8.82843 17.5 8Z" fill="#151414"/>
<path d="M10.5 16C10.5 15.1716 9.82843 14.5 9 14.5C8.17157 14.5 7.5 15.1716 7.5 16C7.5 16.8284 8.17157 17.5 9 17.5V19C7.34315 19 6 17.6569 6 16C6 14.3431 7.34315 13 9 13C10.6569 13 12 14.3431 12 16C12 17.6569 10.6569 19 9 19V17.5C9.82843 17.5 10.5 16.8284 10.5 16Z" fill="#151414"/>
</svg>
