<svg width="20" height="20" viewBox="0 0 20 20" fill="none" xmlns="http://www.w3.org/2000/svg">
<path fill-rule="evenodd" clip-rule="evenodd" d="M3.03033 10.0703C3.36349 9.02361 4.2376 8.0264 5.4973 7.28217C6.75021 6.54195 8.33565 6.08352 9.99883 6.08352C13.3567 6.08352 16.1478 7.9328 16.9639 10.1008C16.9659 10.106 16.9662 10.1095 16.9663 10.1107L16.9663 10.1109C16.5137 11.5389 14.5274 13.9168 9.99883 13.9168C5.52351 13.9168 3.50402 11.3369 3.02971 10.0725L3.03033 10.0703ZM9.99883 4.75018C8.09895 4.75018 6.27903 5.27168 4.81908 6.13421C3.36592 6.99274 2.21967 8.22114 1.75981 9.66583C1.6715 9.94326 1.67222 10.2485 1.77892 10.5344C2.43365 12.2886 4.93047 15.2502 9.99883 15.2502C15.0469 15.2502 17.5921 12.5522 18.2378 10.5122C18.3313 10.2167 18.3156 9.90692 18.2118 9.63107C17.153 6.81838 13.765 4.75018 9.99883 4.75018ZM8.1661 10.0002C8.1661 8.98766 8.98691 8.16685 9.99943 8.16685C11.012 8.16685 11.8328 8.98766 11.8328 10.0002C11.8328 11.0127 11.012 11.8335 9.99943 11.8335C8.98691 11.8335 8.1661 11.0127 8.1661 10.0002ZM9.99943 6.83352C8.25053 6.83352 6.83276 8.25128 6.83276 10.0002C6.83276 11.7491 8.25053 13.1669 9.99943 13.1669C11.7483 13.1669 13.1661 11.7491 13.1661 10.0002C13.1661 8.25128 11.7483 6.83352 9.99943 6.83352Z" fill="#1E2124"/>
</svg>
