<svg width="24" height="24" viewBox="0 0 24 24" fill="none" xmlns="http://www.w3.org/2000/svg">
<path d="M2 12C2 17.5228 6.47715 22 12 22C17.5228 22 22 17.5228 22 12C22 6.47715 17.5228 2 12 2C6.47715 2 2 6.47715 2 12Z" fill="#6A40BF"/>
<path fill-rule="evenodd" clip-rule="evenodd" d="M15.7529 8.33948C16.1177 8.58876 16.2114 9.08656 15.9621 9.45135L11.8621 15.4513C11.7278 15.6479 11.513 15.7744 11.276 15.7965C11.039 15.8187 10.8044 15.7341 10.6361 15.5659L8.13452 13.0659C7.822 12.7535 7.82184 12.247 8.13416 11.9345C8.44648 11.622 8.95302 11.6218 9.26553 11.9341L11.0851 13.7525L14.6411 8.54864C14.8903 8.18385 15.3881 8.09021 15.7529 8.33948Z" fill="white"/>
</svg>
