<svg width="20" height="20" viewBox="0 0 20 20" fill="none" xmlns="http://www.w3.org/2000/svg">
<path d="M11.4993 11.5C11.4993 12.0885 11.1605 12.5978 10.6673 12.8435V14.3335C10.6673 14.7017 10.3688 15.0002 10.0007 15.0002C9.63246 15.0002 9.33398 14.7017 9.33398 14.3335V12.8447C8.83937 12.5995 8.49935 12.0895 8.49935 11.5C8.49935 10.6716 9.17092 10 9.99935 10C10.8278 10 11.4993 10.6716 11.4993 11.5Z" fill="#1E2124"/>
<path fill-rule="evenodd" clip-rule="evenodd" d="M14.8202 6.66669C14.7821 5.76009 14.637 4.68343 14.1238 3.75959C13.7918 3.16195 13.3061 2.62766 12.6103 2.24809C11.9187 1.87089 11.0569 1.66669 9.99935 1.66669C8.94179 1.66669 8.07998 1.87089 7.38844 2.24809C6.69257 2.62766 6.20693 3.16195 5.87491 3.75959C5.36167 4.68343 5.21657 5.76009 5.17855 6.66669H4C3.17157 6.66669 2.5 7.33826 2.5 8.16669V16C2.5 16.8284 3.17157 17.5 4 17.5H15.9993C16.8278 17.5 17.4993 16.8284 17.4993 16V8.16669C17.4993 7.33826 16.8278 6.66669 15.9993 6.66669H14.8202ZM6.51372 6.66669C6.55168 5.86898 6.67793 5.05965 7.04045 4.40712C7.26398 4.00476 7.57695 3.66405 8.02691 3.41862C8.48122 3.17082 9.11246 3.00002 9.99935 3.00002C10.8862 3.00002 11.5175 3.17082 11.9718 3.41862C12.4217 3.66405 12.7347 4.00476 12.9582 4.40712C13.3208 5.05965 13.447 5.86898 13.485 6.66669H6.51372ZM5.83342 8.00002C5.83317 8.00002 5.83366 8.00002 5.83342 8.00002C5.83317 8.00002 5.83219 8.00002 5.83195 8.00002H4C3.90795 8.00002 3.83333 8.07464 3.83333 8.16669V16C3.83333 16.0921 3.90795 16.1667 4 16.1667H15.9993C16.0914 16.1667 16.166 16.0921 16.166 16V8.16669C16.166 8.07464 16.0914 8.00002 15.9993 8.00002H14.1668C14.1665 8.00002 14.167 8.00002 14.1668 8.00002C14.1665 8.00002 14.1655 8.00002 14.1653 8.00002H5.83342Z" fill="#1E2124"/>
</svg>
