<svg width="25" height="25" viewBox="0 0 25 25" fill="none" xmlns="http://www.w3.org/2000/svg">
<path fill-rule="evenodd" clip-rule="evenodd" d="M4.1 12.5C4.1 7.86081 7.86081 4.1 12.5 4.1C17.1392 4.1 20.9 7.86081 20.9 12.5C20.9 17.1392 17.1392 20.9 12.5 20.9C7.86081 20.9 4.1 17.1392 4.1 12.5ZM12.5 2.5C6.97715 2.5 2.5 6.97715 2.5 12.5C2.5 18.0228 6.97715 22.5 12.5 22.5C18.0228 22.5 22.5 18.0228 22.5 12.5C22.5 6.97715 18.0228 2.5 12.5 2.5ZM13.7992 8.3C13.7992 9.01797 13.2172 9.6 12.4992 9.6C11.7812 9.6 11.1992 9.01797 11.1992 8.3C11.1992 7.58203 11.7812 7 12.4992 7C13.2172 7 13.7992 7.58203 13.7992 8.3ZM8.69922 11.0002C8.69922 10.5584 9.05739 10.2002 9.49922 10.2002H15.4992C15.941 10.2002 16.2992 10.5584 16.2992 11.0002C16.2992 11.442 15.941 11.8002 15.4992 11.8002H13.5121L14.7775 17.1147C14.8798 17.5445 14.6143 17.9759 14.1845 18.0782C13.7547 18.1806 13.3233 17.9151 13.221 17.4853L12.4992 14.454L11.7775 17.4853C11.6751 17.9151 11.2437 18.1806 10.8139 18.0782C10.3841 17.9759 10.1186 17.5445 10.221 17.1147L11.4864 11.8002H9.49922C9.05739 11.8002 8.69922 11.442 8.69922 11.0002Z" fill="#1E2124"/>
</svg>
