<svg width="14" height="14" viewBox="0 0 14 14" fill="none" xmlns="http://www.w3.org/2000/svg">
<path fill-rule="evenodd" clip-rule="evenodd" d="M6.25754 1.59922C6.66759 1.18917 7.33242 1.18917 7.74247 1.59922L9.39963 3.25639L10.6664 4.63964L12.3091 6.2823C12.7191 6.69236 12.7191 7.35718 12.3091 7.76723L10.6629 9.41342L9.3961 10.7386L7.74247 12.3923C7.33242 12.8023 6.66759 12.8023 6.25754 12.3923L4.60391 10.7386L3.33716 9.41343L1.69096 7.76723C1.28091 7.35718 1.28091 6.69235 1.69096 6.2823L3.33363 4.63964L4.60038 3.25639L6.25754 1.59922ZM7.0825 2.25919C7.03694 2.21363 6.96307 2.21363 6.91751 2.25919L5.27484 3.90186L4.00809 5.2851L2.35093 6.94227C2.30537 6.98783 2.30537 7.0617 2.35093 7.10726L4.00456 8.7609L5.27131 10.0861L6.91751 11.7323C6.96307 11.7779 7.03694 11.7779 7.0825 11.7323L8.72869 10.0861L9.99545 8.7609L11.6491 7.10726C11.6946 7.0617 11.6946 6.98783 11.6491 6.94227L9.99192 5.2851L8.72516 3.90185L7.0825 2.25919Z" fill="#58616A"/>
</svg>
