<svg width="20" height="20" viewBox="0 0 20 20" fill="none" xmlns="http://www.w3.org/2000/svg">
<g clip-path="url(#clip0_4475_37496)">
<path d="M17.9106 9.99691C17.9105 5.62756 14.3683 2.08594 9.99886 2.08594C5.6296 2.08607 2.08802 5.62764 2.08789 9.99691C2.08789 14.3663 5.62951 17.9086 9.99886 17.9087C14.3684 17.9087 17.9106 14.3664 17.9106 9.99691ZM12.8122 6.17611C13.0903 5.89803 13.5414 5.89814 13.8197 6.17611C14.0979 6.45436 14.0979 6.90616 13.8197 7.18441L7.18636 13.8177C6.90811 14.096 6.45631 14.096 6.17806 13.8177C5.90009 13.5395 5.89999 13.0884 6.17806 12.8102L12.8122 6.17611ZM12.6527 12.6019C12.6256 12.6019 12.6038 12.6236 12.6038 12.6507L12.6071 12.6702C12.6146 12.6878 12.6324 12.6995 12.6527 12.6995C12.6798 12.6995 12.7015 12.6778 12.7015 12.6507C12.7015 12.6305 12.6897 12.6126 12.6722 12.6051L12.6527 12.6019ZM7.34587 7.29427C7.31874 7.29427 7.29622 7.31679 7.29622 7.34391L7.30029 7.36263C7.30773 7.38029 7.3255 7.39274 7.34587 7.39274C7.36607 7.39261 7.38321 7.38016 7.39062 7.36263L7.39469 7.34391L7.39062 7.32438C7.38563 7.31267 7.37632 7.30328 7.36458 7.29834L7.34587 7.29427ZM14.0288 12.6507C14.0288 13.4106 13.4126 14.0269 12.6527 14.0269C11.8928 14.0268 11.2765 13.4106 11.2765 12.6507C11.2765 11.8908 11.8928 11.2746 12.6527 11.2746C13.4125 11.2746 14.0288 11.8908 14.0288 12.6507ZM19.3356 9.99691C19.3356 15.1534 15.1554 19.3337 9.99886 19.3337C4.84251 19.3335 0.662109 15.1534 0.662109 9.99691C0.662243 4.84064 4.84259 0.66029 9.99886 0.660156C15.1553 0.660156 19.3355 4.84056 19.3356 9.99691ZM8.72119 7.34391C8.72101 8.10353 8.10549 8.71906 7.34587 8.71924C6.63336 8.71924 6.04735 8.17785 5.97705 7.48389L5.96973 7.34391L5.97705 7.20312C6.04742 6.50924 6.63341 5.96777 7.34587 5.96777L7.48584 5.9751C8.1798 6.0454 8.72119 6.63141 8.72119 7.34391Z" fill="white"/>
</g>
<defs>
<clipPath id="clip0_4475_37496">
<rect width="20" height="20" fill="white"/>
</clipPath>
</defs>
</svg>
