<svg width="20" height="20" viewBox="0 0 20 20" fill="none" xmlns="http://www.w3.org/2000/svg">
<path d="M10.0011 0.833984L5.0013 9.16732H15.0013L10.0011 0.833984ZM10.0011 4.0734L12.0576 7.50065H7.9449L10.0011 4.0734ZM5.6263 16.6673C4.36065 16.6673 3.33464 15.6413 3.33464 14.3757C3.33464 13.11 4.36065 12.084 5.6263 12.084C6.89195 12.084 7.91797 13.11 7.91797 14.3757C7.91797 15.6413 6.89195 16.6673 5.6263 16.6673ZM5.6263 18.334C7.81243 18.334 9.58464 16.5618 9.58464 14.3757C9.58464 12.1895 7.81243 10.4173 5.6263 10.4173C3.44018 10.4173 1.66797 12.1895 1.66797 14.3757C1.66797 16.5618 3.44018 18.334 5.6263 18.334ZM12.5013 12.9173V16.2507H15.8346V12.9173H12.5013ZM10.8346 17.9173V11.2507H17.5013V17.9173H10.8346Z" fill="white"/>
</svg>
