<svg width="20" height="20" viewBox="0 0 20 20" fill="none" xmlns="http://www.w3.org/2000/svg">
<g clip-path="url(#clip0_4475_37496)">
<path d="M17.9126 9.99691C17.9125 5.62756 14.3703 2.08594 10.0008 2.08594C5.63155 2.08607 2.08998 5.62764 2.08984 9.99691C2.08984 14.3663 5.63146 17.9086 10.0008 17.9087C14.3703 17.9087 17.9126 14.3664 17.9126 9.99691ZM12.8141 6.17611C13.0923 5.89803 13.5434 5.89814 13.8216 6.17611C14.0999 6.45436 14.0999 6.90616 13.8216 7.18441L7.18831 13.8177C6.91007 14.096 6.45826 14.096 6.18001 13.8177C5.90204 13.5395 5.90194 13.0884 6.18001 12.8102L12.8141 6.17611ZM12.6546 12.6019C12.6275 12.6019 12.6058 12.6236 12.6058 12.6507L12.609 12.6702C12.6166 12.6878 12.6344 12.6995 12.6546 12.6995C12.6817 12.6995 12.7035 12.6778 12.7035 12.6507C12.7034 12.6305 12.6917 12.6126 12.6742 12.6051L12.6546 12.6019ZM7.34782 7.29427C7.32069 7.29427 7.29818 7.31679 7.29818 7.34391L7.30225 7.36263C7.30969 7.38029 7.32745 7.39274 7.34782 7.39274C7.36802 7.39261 7.38516 7.38016 7.39258 7.36263L7.39665 7.34391L7.39258 7.32438C7.38759 7.31267 7.37827 7.30328 7.36654 7.29834L7.34782 7.29427ZM14.0308 12.6507C14.0308 13.4106 13.4145 14.0269 12.6546 14.0269C11.8947 14.0268 11.2785 13.4106 11.2785 12.6507C11.2785 11.8908 11.8947 11.2746 12.6546 11.2746C13.4145 11.2746 14.0308 11.8908 14.0308 12.6507ZM19.3376 9.99691C19.3376 15.1534 15.1573 19.3337 10.0008 19.3337C4.84447 19.3335 0.664062 15.1534 0.664062 9.99691C0.664196 4.84064 4.84454 0.66029 10.0008 0.660156C15.1573 0.660156 19.3374 4.84056 19.3376 9.99691ZM8.72314 7.34391C8.72297 8.10353 8.10744 8.71906 7.34782 8.71924C6.63531 8.71924 6.04931 8.17785 5.979 7.48389L5.97168 7.34391L5.979 7.20312C6.04938 6.50924 6.63537 5.96777 7.34782 5.96777L7.48779 5.9751C8.18176 6.0454 8.72314 6.63141 8.72314 7.34391Z" fill="white"/>
</g>
<defs>
<clipPath id="clip0_4475_37496">
<rect width="20" height="20" fill="white"/>
</clipPath>
</defs>
</svg>
