<svg width="197" height="48" viewBox="0 0 197 48" fill="none" xmlns="http://www.w3.org/2000/svg">
<path d="M16.477 20.7516C15.8995 15.4876 21.4136 11.264 28.7907 11.323C36.1708 11.382 42.6257 15.6926 43.2032 20.9504C43.7807 26.2175 38.2728 30.4318 30.8895 30.3759C23.5094 30.3231 17.0545 26.0125 16.4739 20.7547M44.5786 22.382C43.9111 15.8572 36.4844 10.5093 27.9896 10.4379C19.4918 10.3696 13.1455 15.6056 13.8131 22.1274C14.4806 28.6523 21.9073 34.0001 30.4021 34.0715C38.8968 34.1398 45.2462 28.9069 44.5755 22.382" fill="#FBB584"/>
<path d="M31.7558 34.202C27.5706 38.5809 20.8549 38.9411 16.7534 35.0125C12.6519 31.087 12.7233 24.3603 16.9117 19.9907C21.097 15.618 27.8158 15.2547 31.9111 19.1802C36.0094 23.1056 35.9411 29.8324 31.7558 34.202ZM16.2504 19.8541C11.3852 24.9317 11.3076 32.7547 16.0734 37.3169C20.8362 41.8759 28.6479 41.4566 33.5101 36.3728C38.3753 31.292 38.456 23.469 33.6901 18.91C28.9274 14.3479 21.1188 14.7671 16.2535 19.8541" fill="#F89B6C"/>
<path d="M16.6941 3.48133C25.4 0.220454 34.0034 3.52171 35.916 10.8509C37.8317 18.1895 32.3268 26.7796 23.624 30.0373C14.9213 33.3044 6.31162 30.0001 4.40216 22.6677C2.48649 15.3385 7.99442 6.74843 16.6972 3.48133M8.61228 6.28569C-0.41651 13.4348 -2.71407 23.8013 3.47692 29.4255C9.67102 35.056 22.0127 33.82 31.0414 26.6709C40.0702 19.5249 42.3709 9.16148 36.1768 3.53102C29.9796 -2.09633 17.6411 -0.866507 8.61228 6.28569Z" fill="#F37321"/>
<path fill-rule="evenodd" clip-rule="evenodd" d="M145.867 37.6708C146.805 37.6709 147.559 37.9503 148.112 38.503C148.664 39.0558 148.944 39.8324 148.944 40.8137V45.2332C148.944 46.1492 148.689 46.8386 148.189 47.2858C147.708 47.7609 146.951 48 145.945 48H141.464V46.469H145.985C146.398 46.469 146.708 46.3788 146.91 46.2018C147.109 46.0279 147.208 45.7577 147.208 45.4006V45.0545C146.904 45.2402 146.464 45.3354 145.895 45.3354H143.827C142.889 45.3354 142.135 45.0529 141.582 44.5032C141.039 43.9597 140.763 43.1865 140.763 42.2052V40.8137C140.763 39.8231 141.039 39.0465 141.582 38.503C142.132 37.9503 142.889 37.6708 143.827 37.6708H145.867ZM143.933 39.2051C143.411 39.2051 143.038 39.3604 142.796 39.6865C142.601 39.9535 142.501 40.3634 142.501 40.9069V42.1276C142.501 42.6586 142.597 43.0654 142.793 43.3325C143.038 43.6493 143.408 43.8044 143.929 43.8044H145.761C146.25 43.8044 146.614 43.6679 146.864 43.3898L146.916 43.3325C147.109 43.0685 147.208 42.6617 147.208 42.1276V40.9069C147.208 40.3665 147.109 39.9566 146.916 39.6895C146.662 39.3634 146.286 39.2051 145.764 39.2051H143.933Z" fill="white"/>
<path fill-rule="evenodd" clip-rule="evenodd" d="M55.8057 35.1679C56.0043 35.1679 56.1876 35.2207 56.3584 35.3231C56.5291 35.4256 56.678 35.5996 56.8083 35.8387L61.5496 45.2083L61.6147 45.3387H59.6991L59.6742 45.289L58.4384 42.8294H53.1975L51.9619 45.289L51.9371 45.3387H50.0245L50.0896 45.2083L54.8339 35.8354C54.9452 35.6262 55.0755 35.4669 55.2187 35.3617L55.2778 35.3231C55.4485 35.2207 55.6256 35.1679 55.8057 35.1679ZM53.9646 41.3105H57.6773L55.8196 37.6081L53.9646 41.3105Z" fill="white"/>
<path d="M69.4729 39.2018H64.6544C64.0303 39.2018 63.729 39.4039 63.729 39.8263V40.1399C63.729 40.289 63.7292 40.7516 64.6419 40.7516L64.645 40.7546H67.2189C68.0727 40.7546 68.7091 40.8915 69.1127 41.1586C69.6281 41.5064 69.8922 42.0498 69.8922 42.7796V43.3386C69.8922 44.059 69.6281 44.5993 69.1096 44.9472C68.706 45.208 68.0665 45.3387 67.2034 45.3387H62.1517V43.8074H67.2034C68.141 43.8074 68.1409 43.3479 68.1409 43.1957V42.8946C68.1409 42.7393 68.141 42.2704 67.2034 42.2704H64.6295C63.785 42.2704 63.1514 42.1367 62.7478 41.8758C62.2387 41.5311 61.981 40.9907 61.981 40.2703V39.6989C61.981 38.9598 62.2387 38.4133 62.7478 38.0778C63.1514 37.8077 63.785 37.6708 64.6295 37.6708H69.4729V39.2018Z" fill="white"/>
<path d="M78.3865 39.2018H73.568C72.9439 39.2018 72.6426 39.4039 72.6426 39.8263V40.1399C72.6426 40.289 72.6428 40.7516 73.5555 40.7516L73.5525 40.7546H76.1264C76.9802 40.7546 77.6166 40.8915 78.0202 41.1586C78.5387 41.5064 78.8028 42.0498 78.8028 42.7796V43.3386C78.8028 44.059 78.5387 44.5993 78.0202 44.9472C77.6166 45.208 76.9771 45.3387 76.114 45.3387H71.0623V43.8074H76.114C77.0515 43.8074 77.0515 43.3479 77.0515 43.1957V42.8946C77.0515 42.7393 77.0515 42.2704 76.114 42.2704H73.5401C72.6956 42.2704 72.062 42.1367 71.6584 41.8758C71.1492 41.5311 70.8916 40.9907 70.8916 40.2703V39.6989C70.8916 38.9598 71.1493 38.4133 71.6584 38.0778C72.062 37.8077 72.6956 37.6708 73.5401 37.6708H78.3865V39.2018Z" fill="white"/>
<path d="M110.67 35.1773C111.096 35.1773 111.605 35.3668 111.63 36.2797V45.3357H109.894V38.9631L106.783 44.4349C106.522 44.879 106.187 45.1027 105.783 45.1028C105.38 45.1028 105.041 44.876 104.783 44.4319L101.691 38.9701V45.3357H99.9525V36.2797C99.9649 35.3698 100.468 35.1773 100.887 35.1773C101.275 35.1773 101.601 35.4037 101.862 35.8478L105.786 42.8433L109.723 35.8478C109.981 35.4037 110.301 35.1773 110.67 35.1773Z" fill="white"/>
<path d="M126.99 37.6648C127.98 37.6648 128.772 37.9597 129.34 38.5373C129.908 39.115 130.197 39.9287 130.197 40.9536V45.3323H128.458V41.0312C128.458 40.4318 128.343 39.9939 128.113 39.7238C127.825 39.3697 127.418 39.1988 126.872 39.1988H125.546C125.024 39.1988 124.608 39.3759 124.32 39.7238C124.108 39.9939 124 40.4318 124 41.0342V45.3357H122.264V40.9566C122.264 39.9958 122.518 39.2208 123.018 38.6517L123.118 38.5373C123.689 37.9597 124.475 37.6648 125.456 37.6648H126.99Z" fill="white"/>
<path d="M168.346 37.6678C169.243 37.6678 169.963 37.9537 170.488 38.5158C171.007 39.0437 171.267 39.7952 171.267 40.7485V45.3357H169.544V40.7361C169.544 40.2175 169.429 39.8357 169.203 39.6027C168.954 39.3357 168.616 39.2021 168.203 39.2021H167.526C167.119 39.2021 166.787 39.3357 166.539 39.6027C166.321 39.8357 166.213 40.2176 166.213 40.7361V45.3357H164.499V40.7361C164.499 40.2176 164.384 39.8357 164.161 39.6027C163.909 39.3357 163.57 39.2021 163.158 39.2021H162.484C162.074 39.2021 161.748 39.3326 161.497 39.6027C161.279 39.8357 161.167 40.2144 161.167 40.7361V45.3357H159.444V40.7485C159.444 39.7952 159.699 39.0437 160.199 38.5188C160.723 37.9567 161.441 37.6708 162.329 37.6708L163.294 37.6678C164.106 37.6678 164.799 37.9922 165.359 38.6234C165.918 37.9893 166.602 37.6678 167.399 37.6678H168.346Z" fill="white"/>
<path d="M186.543 37.6648C187.533 37.6648 188.325 37.9597 188.893 38.5373C189.461 39.1181 189.75 39.9287 189.75 40.9536V45.3323H188.011V41.0312C188.011 40.4319 187.9 39.9939 187.67 39.7238C187.381 39.3697 186.971 39.1988 186.425 39.1988H185.099C184.568 39.1988 184.164 39.3697 183.869 39.7238C183.658 39.9939 183.55 40.4318 183.55 41.0342V45.3357H181.814V40.9566C181.814 39.9958 182.068 39.2208 182.568 38.6517L182.671 38.5373C183.239 37.9597 184.025 37.6648 185.009 37.6648H186.543Z" fill="white"/>
<path fill-rule="evenodd" clip-rule="evenodd" d="M117.998 37.6708C118.954 37.6709 119.696 37.9193 120.202 38.4099C120.721 38.882 120.985 39.5778 120.985 40.4753V43.115C120.985 43.8138 120.743 44.376 120.264 44.7828C119.836 45.1492 119.224 45.3354 118.454 45.3354H115.272C114.521 45.3354 113.918 45.1211 113.48 44.6988C113.033 44.2764 112.804 43.7268 112.804 43.0623V42.5279C112.804 41.8541 113.033 41.3013 113.48 40.879C113.921 40.4473 114.524 40.2299 115.272 40.2299H119.245C119.227 39.5182 118.827 39.1739 118.023 39.1739H113.412V37.6708H117.998ZM115.647 41.733C114.902 41.733 114.542 42.0375 114.542 42.6586V42.907C114.542 43.5187 114.902 43.8168 115.647 43.8168H118.116C118.879 43.8168 119.249 43.5188 119.249 42.907V42.6586C119.249 42.0344 118.879 41.733 118.116 41.733H115.647Z" fill="white"/>
<path fill-rule="evenodd" clip-rule="evenodd" d="M136.5 37.6708C137.456 37.6709 138.198 37.9193 138.704 38.4099C139.222 38.882 139.486 39.5778 139.486 40.4753V43.115C139.486 43.8138 139.244 44.376 138.766 44.7828C138.338 45.1492 137.726 45.3354 136.956 45.3354H133.773C133.022 45.3354 132.42 45.1211 131.982 44.6988C131.535 44.2764 131.305 43.7268 131.305 43.0623V42.5279C131.305 41.8541 131.535 41.3013 131.982 40.879C132.423 40.4473 133.025 40.2299 133.773 40.2299H137.747C137.729 39.5182 137.328 39.1739 136.524 39.1739H131.914V37.6708H136.5ZM134.146 41.733C133.401 41.733 133.041 42.0375 133.041 42.6586V42.907C133.041 43.5187 133.401 43.8168 134.146 43.8168H136.614C137.378 43.8168 137.747 43.5188 137.748 42.907V42.6586C137.748 42.0344 137.378 41.733 136.614 41.733H134.146Z" fill="white"/>
<path fill-rule="evenodd" clip-rule="evenodd" d="M85.5994 37.6708C86.3096 37.6709 86.886 37.862 87.3186 38.2416L87.4001 38.3168C87.8565 38.7361 88.0893 39.2919 88.0893 39.9658V40.4847C88.0893 41.1492 87.8565 41.6989 87.4001 42.1212C86.9593 42.5436 86.3568 42.7578 85.6085 42.7578H81.6474C81.6608 43.4686 82.0615 43.8138 82.8703 43.8138H87.7416V45.3323H82.8827C81.9388 45.3323 81.1966 45.0901 80.6781 44.6087C80.169 44.1336 79.9113 43.4442 79.9113 42.5561V39.9691C79.9113 39.2952 80.1379 38.7422 80.585 38.3199C81.0259 37.8882 81.6315 37.6708 82.3891 37.6708H85.5994ZM82.752 39.1709C82.0069 39.1709 81.6468 39.4754 81.6468 40.0965V40.3449C81.6469 40.9566 82.007 41.2547 82.752 41.2547H85.2328C85.9842 41.2547 86.3507 40.9566 86.3508 40.3449V40.0965C86.3508 39.4723 85.9873 39.1709 85.2328 39.1709H82.752Z" fill="white"/>
<path d="M92.9636 37.6678H95.3016V39.1615H92.9636V45.3323H91.2126V39.1615H88.8746V37.6678H91.2126V35.9816H92.9636V37.6678Z" fill="white"/>
<path fill-rule="evenodd" clip-rule="evenodd" d="M155.805 37.6708C156.515 37.6709 157.092 37.862 157.524 38.2416L157.609 38.3168C158.065 38.7361 158.298 39.2919 158.298 39.9658V40.4847C158.298 41.1492 158.065 41.6989 157.609 42.1212C157.171 42.5435 156.569 42.7578 155.821 42.7578H151.856C151.87 43.4686 152.27 43.8138 153.079 43.8138H157.951V45.3323H153.091C152.145 45.3323 151.403 45.0901 150.887 44.6087C150.375 44.1336 150.117 43.4442 150.117 42.5561V39.9691C150.117 39.2983 150.344 38.7422 150.794 38.3199C151.235 37.8882 151.84 37.6708 152.598 37.6708H155.805ZM152.961 39.1709C152.216 39.1709 151.853 39.4754 151.853 40.0965V40.3449C151.853 40.9566 152.216 41.2547 152.961 41.2547H155.442C156.196 41.2547 156.563 40.9566 156.563 40.3449V40.0965C156.563 39.4723 156.196 39.1709 155.442 39.1709H152.961Z" fill="white"/>
<path fill-rule="evenodd" clip-rule="evenodd" d="M178.151 37.6708C178.861 37.6709 179.437 37.862 179.87 38.2416L179.951 38.3168C180.408 38.7361 180.641 39.2919 180.641 39.9658V40.4847C180.641 41.1492 180.408 41.6989 179.951 42.1212C179.511 42.5436 178.908 42.7578 178.16 42.7578H174.199C174.212 43.4686 174.613 43.8138 175.422 43.8138H180.293V45.3323H175.434C174.49 45.3323 173.748 45.0901 173.229 44.6087C172.72 44.1336 172.463 43.4442 172.463 42.5561V39.9691C172.463 39.2952 172.689 38.7422 173.136 38.3199C173.577 37.8882 174.183 37.6708 174.94 37.6708H178.151ZM175.306 39.1709C174.561 39.1709 174.201 39.4754 174.201 40.0965V40.3449C174.201 40.9566 174.561 41.2547 175.306 41.2547H177.787C178.538 41.2547 178.905 40.9566 178.905 40.3449V40.0965C178.905 39.4723 178.542 39.1709 177.787 39.1709H175.306Z" fill="white"/>
<path d="M194.662 35.9816V37.6678H197V39.1615H194.662V45.3323H192.911V39.1615H190.573V37.6678H192.911V35.9816H194.662Z" fill="white"/>
<path d="M69.0818 10.1117V30.3667H65.7595V19.7794H54.0452V30.3667H50.723V10.1147H54.0452V16.8479H65.7595V10.1117H69.0818Z" fill="white"/>
<path fill-rule="evenodd" clip-rule="evenodd" d="M82.0413 15.087C83.9414 15.087 85.4161 15.5808 86.422 16.5528C87.4528 17.4937 87.9714 18.8727 87.9714 20.6552V25.9751C87.9714 27.3602 87.4931 28.4691 86.5524 29.2672C85.7017 29.9939 84.4907 30.3633 82.957 30.3633L82.9603 30.3602H76.5427C75.0586 30.3602 73.8661 29.9379 72.9967 29.1025C72.1088 28.2671 71.6587 27.1801 71.6587 25.8665V24.792C71.6587 23.4628 72.1088 22.3665 72.9967 21.5311C73.863 20.6802 75.0586 20.2485 76.5427 20.2485H84.6519C84.6475 18.6948 83.8095 17.9409 82.0941 17.9409H72.8882V15.087H82.0413ZM77.2998 23.0157C75.6916 23.0157 74.8905 23.6959 74.8905 25.0592V25.556C74.8905 26.9007 75.6947 27.5746 77.2998 27.5746H82.2769C83.9193 27.5746 84.7389 26.9007 84.7389 25.556V25.0592C84.7389 23.6958 83.9193 23.0157 82.2769 23.0157H77.2998Z" fill="white"/>
<path d="M82.2769 22.9255H77.2999C75.6419 22.9255 74.8005 23.6429 74.8005 25.059V25.5559C74.8005 26.9535 75.6419 27.6615 77.2999 27.6615H82.2769C83.969 27.6615 84.829 26.9535 84.829 25.5559V25.059C84.829 23.6429 83.969 22.9255 82.2769 22.9255ZM84.649 25.059V25.5559C84.649 26.8541 83.8728 27.4845 82.2769 27.4845H77.2999C75.7381 27.4845 74.9775 26.8541 74.9775 25.5559V25.059C74.9775 23.7423 75.7381 23.1056 77.2999 23.1056H82.2769C83.8728 23.1056 84.649 23.7454 84.649 25.059Z" fill="white"/>
<path d="M100.167 15.09C102.139 15.0901 103.713 15.674 104.843 16.8199C105.973 17.9659 106.544 19.5839 106.544 21.6242V30.3602H103.222V21.7795C103.222 20.5498 102.983 19.643 102.511 19.0839C101.921 18.3573 101.055 17.9906 99.9343 17.9906H97.261C96.1774 17.9906 95.3174 18.3603 94.7119 19.0839C94.2742 19.6398 94.0506 20.5466 94.0506 21.7795V30.3602H90.7284V21.6242C90.7284 19.6477 91.2645 18.0675 92.3254 16.9288L92.4267 16.8199C93.5568 15.674 95.1188 15.09 97.0748 15.09H100.167Z" fill="white"/>
<path d="M112.416 15.0806V24.264C112.416 25.3354 112.646 26.1274 113.099 26.615C113.617 27.1709 114.31 27.4503 115.154 27.4503H116.517C117.377 27.4503 118.079 27.1709 118.6 26.615C119.069 26.1274 119.308 25.3385 119.308 24.267V15.084H122.578V24.267C122.578 25.3415 122.807 26.1305 123.261 26.6181C123.779 27.174 124.472 27.4536 125.316 27.4536H126.679C127.539 27.4536 128.241 27.1739 128.762 26.6181C129.231 26.1305 129.47 25.3386 129.47 24.2704V15.087H132.768V24.2455C132.768 26.1492 132.246 27.643 131.225 28.6834C130.181 29.7983 128.747 30.3633 126.968 30.3633L125.058 30.3572C123.446 30.3572 122.063 29.6946 120.945 28.3877C119.825 29.6946 118.424 30.3572 116.778 30.3572H114.84C113.077 30.3572 111.655 29.7919 110.612 28.677C109.621 27.6336 109.118 26.1397 109.118 24.2391V15.0806H112.416Z" fill="white"/>
<path d="M138.691 10.0589V15.9313C139.578 15.3734 140.595 15.09 141.719 15.09H144.811C146.782 15.09 148.357 15.674 149.487 16.8199C150.614 17.969 151.188 19.5869 151.188 21.6273V30.3633H147.866V21.7859C147.866 20.5561 147.627 19.649 147.152 19.09C146.562 18.3664 145.696 17.997 144.575 17.997H141.902C140.818 17.997 139.958 18.3664 139.353 19.09C138.912 19.6459 138.691 20.553 138.691 21.7859V30.3633H135.369V10.0589H138.691Z" fill="white"/>
<path d="M158.484 30.2734C157.016 30.2734 155.855 29.8634 155.001 29.0404C154.125 28.2206 153.691 27.1616 153.691 25.8696V24.7951C153.691 23.4845 154.125 22.4193 155.001 21.5994C155.855 20.7609 157.016 20.3417 158.484 20.3417H166.684V20.264C166.684 18.6553 165.802 17.8541 164.039 17.8541H154.923V15.1801H163.989C165.874 15.1801 167.314 15.6615 168.311 16.6211C169.323 17.5466 169.829 18.8944 169.829 20.6553V25.9752C169.829 27.3386 169.367 28.4131 168.442 29.1988C167.603 29.9162 166.423 30.2734 164.905 30.2734H158.484ZM164.222 23.0156H159.245C157.637 23.0156 156.836 23.6957 156.836 25.0591V25.556C156.836 26.9007 157.64 27.5746 159.245 27.5746H164.222C165.865 27.5746 166.684 26.9007 166.684 25.556V25.0591C166.684 23.6957 165.865 23.0156 164.222 23.0156Z" fill="white"/>
<path d="M158.485 30.1864C157.047 30.1864 155.898 29.7796 155.063 28.9814C154.212 28.1802 153.781 27.1336 153.781 25.8727V24.7982C153.781 23.5218 154.212 22.4659 155.063 21.6646C155.898 20.8478 157.05 20.4317 158.485 20.4317H166.775V20.264C166.775 18.6056 165.855 17.764 164.039 17.764H154.923L155.013 17.854V15.1801L154.923 15.2702H163.989C165.843 15.2702 167.274 15.7485 168.249 16.6863C169.24 17.5932 169.74 18.9255 169.74 20.6584V25.9783C169.74 27.3075 169.283 28.3696 168.383 29.1336C167.566 29.8324 166.393 30.1864 164.902 30.1864H158.485ZM164.902 30.3634C166.436 30.3634 167.647 29.9938 168.498 29.2671C169.438 28.469 169.917 27.3603 169.917 25.9752V20.6553C169.917 18.8727 169.398 17.4938 168.367 16.5528C167.361 15.5807 165.887 15.087 163.986 15.087H154.833V17.941H164.039C165.759 17.941 166.598 18.6988 166.598 20.2609V20.3385L166.688 20.2485H158.488C157.004 20.2485 155.808 20.6801 154.942 21.5311C154.054 22.3665 153.604 23.4628 153.604 24.792V25.8665C153.604 27.1802 154.054 28.2671 154.942 29.1025C155.811 29.9379 157.004 30.3603 158.488 30.3603H164.905L164.902 30.3634Z" fill="white"/>
<path d="M164.222 22.9255H159.245C157.587 22.9255 156.746 23.6429 156.746 25.059V25.5559C156.746 26.9535 157.587 27.6615 159.245 27.6615H164.222C165.914 27.6615 166.774 26.9535 166.774 25.5559V25.059C166.774 23.6429 165.914 22.9255 164.222 22.9255ZM166.594 25.059V25.5559C166.594 26.8541 165.818 27.4845 164.222 27.4845H159.245C157.683 27.4845 156.923 26.8541 156.923 25.5559V25.059C156.923 23.7423 157.683 23.1056 159.245 23.1056H164.222C165.818 23.1056 166.594 23.7454 166.594 25.059Z" fill="white"/>
</svg>
