<svg width="99" height="12" viewBox="0 0 99 12" fill="none" xmlns="http://www.w3.org/2000/svg">
<g clip-path="url(#clip0_624_19601)">
<mask id="mask0_624_19601" style="mask-type:luminance" maskUnits="userSpaceOnUse" x="0" y="0" width="99" height="12">
<path d="M98.712 0H0V12H98.712V0Z" fill="white"/>
</mask>
<g mask="url(#mask0_624_19601)">
<path d="M11.0664 0V3.9672H14.6856V8.0328H11.0664V12H18.3048V0H11.0664Z" fill="#121212"/>
<path d="M0 0V12H7.2396V8.0328H3.6192V3.9672H7.2396V0H0Z" fill="#121212"/>
<path d="M70.6191 1.51975V10.4466H72.4444H77.1051V8.62137H72.4444V6.89817H75.6904V5.07297H72.4444V3.34375H77.1051V1.51855H70.6191V1.51975Z" fill="#121212"/>
<path d="M80.7891 3.34402H83.7518V10.4468H85.5771V3.34402H88.5385V1.52002H80.7891V3.34402Z" fill="#121212"/>
<path d="M98.7106 3.34402V1.52002H92.2246V10.4468H94.0486V6.89843H97.2959V5.07323H94.0486V3.34402H98.7106Z" fill="#121212"/>
<path d="M30.913 5.98257C30.6418 6.26577 30.2446 6.40737 29.7034 6.41457H27.9022V3.39415H29.6986C30.2386 3.40135 30.6478 3.54295 30.9178 3.81895C31.2046 4.10455 31.345 4.45977 31.345 4.90377C31.345 5.34777 31.2058 5.69697 30.913 5.98137M29.809 1.51855H25.957V10.4478H27.901V8.29017H29.815C30.859 8.28177 31.7026 7.93857 32.3182 7.27497C32.953 6.62457 33.2794 5.94057 33.2878 4.97577V4.96977C33.277 3.80576 32.953 3.16495 32.3182 2.51815C31.6978 1.87255 30.8554 1.53655 29.8078 1.51855" fill="#121212"/>
<path d="M38.6764 1.51855H36.7324V10.4694H38.6764H43.3865V8.59257H38.6764V1.51855Z" fill="#121212"/>
<path d="M51.4106 1.51855L51.4166 7.00017C51.4093 7.54017 51.2678 7.94937 50.9918 8.21937C50.706 8.50617 50.3507 8.64657 49.9067 8.64657C49.4627 8.64657 49.1138 8.50857 48.8293 8.21457C48.546 7.94337 48.4046 7.54617 48.3973 7.00377L48.3913 1.51855H46.4473L46.4533 7.04937C46.4618 8.09337 46.806 8.93697 47.4686 9.55257C48.1187 10.1874 48.9386 10.5138 49.9046 10.5222H49.9106C50.8907 10.5126 51.7178 10.1862 52.362 9.55257C53.0078 8.93217 53.3438 8.08977 53.3618 7.04337L53.3558 1.51855H51.4118H51.4106Z" fill="#121212"/>
<path d="M63.3907 6.81029C62.9385 5.75789 61.9254 5.38109 61.136 5.19269C59.5173 4.79549 59.1427 4.65149 59.1453 4.1007C59.1453 3.8403 59.3587 3.3639 60.4134 3.3483C61.4685 3.3327 62.5374 3.9591 62.5374 3.9591L63.0825 2.0511C63.0825 2.0511 62.0647 1.4751 60.5214 1.4751C58.9785 1.4751 58.3987 1.8963 57.9247 2.2923C57.4507 2.6895 57.1914 3.4683 57.1914 3.9735C57.1914 4.66109 57.3753 5.74229 58.43 6.30749C59.4847 6.87269 61.6494 6.93389 61.6194 7.83989C61.5967 8.54069 60.7125 8.62589 60.1927 8.62589C59.6733 8.62589 58.34 8.33309 57.6307 7.85909L57.1927 9.67949C57.1927 9.67949 58.3074 10.5243 60.2634 10.5243C60.2634 10.5243 62.4787 10.5891 63.2887 9.11669C63.2887 9.11669 63.8874 7.95389 63.3954 6.81029" fill="#121212"/>
</g>
</g>
<defs>
<clipPath id="clip0_624_19601">
<rect width="99" height="12" fill="white"/>
</clipPath>
</defs>
</svg>
