<svg width="27" height="24" viewBox="0 0 27 24" fill="none" xmlns="http://www.w3.org/2000/svg">
<g clip-path="url(#clip0_326_1002)">
<path d="M9.97958 12.33C9.64435 9.27976 12.8394 6.83379 17.123 6.8669C21.4024 6.90001 25.1437 9.39978 25.479 12.4459C25.8184 15.4961 22.6191 17.942 18.3356 17.9089C14.0562 17.8758 10.3148 15.3802 9.97958 12.3258M26.2736 13.2777C25.8846 9.49911 21.5803 6.39923 16.6553 6.35784C11.7302 6.31645 8.05095 9.35012 8.43585 13.1329C8.82075 16.9156 13.1291 20.0155 18.0583 20.0528C22.9834 20.0942 26.6626 17.0605 26.2778 13.2777" fill="#FBB584"/>
<path d="M18.8363 20.131C16.4111 22.6639 12.5166 22.875 10.1451 20.5987C7.76535 18.3266 7.80673 14.4238 10.232 11.8909C12.6573 9.35802 16.5518 9.15108 18.9274 11.4232C21.303 13.6995 21.2658 17.5982 18.8363 20.131ZM9.85125 11.8081C7.0328 14.7549 6.98727 19.2867 9.74778 21.9314C12.5124 24.576 17.036 24.3318 19.8586 21.3851C22.6812 18.4383 22.7267 13.9064 19.9621 11.2618C17.2016 8.61719 12.6738 8.86137 9.85539 11.8081" fill="#F89B6C"/>
<path d="M10.1084 2.32239C15.1535 0.431009 20.1448 2.34308 21.2539 6.59352C22.3631 10.844 19.1722 15.8228 14.1271 17.7142C9.08204 19.6097 4.09492 17.6935 2.98161 13.4431C1.8683 9.19262 5.06337 4.21377 10.1084 2.32239ZM5.42344 3.9489C0.183853 8.09173 -1.14467 14.097 2.44358 17.3583C6.03182 20.6196 13.1876 19.9077 18.4272 15.7607C23.6627 11.6138 24.9953 5.60851 21.4029 2.34722C17.8105 -0.914066 10.6589 -0.198072 5.42344 3.9489Z" fill="#F37321"/>
</g>
<defs>
<clipPath id="clip0_326_1002">
<rect width="27" height="24" fill="white"/>
</clipPath>
</defs>
</svg>
