<svg width="20" height="20" viewBox="0 0 20 20" fill="none" xmlns="http://www.w3.org/2000/svg">
<path d="M17.0348 13.5321C16.8265 13.6555 16.6007 13.7681 16.3621 13.8683C15.2795 14.3228 13.8268 14.5893 12.248 14.5893C10.6692 14.5893 9.2165 14.3228 8.13396 13.8683C7.89536 13.7681 7.66956 13.6555 7.46125 13.5321V15.1158C7.46127 15.2306 7.51398 15.3862 7.70796 15.5788C7.90512 15.7746 8.22137 15.9788 8.6622 16.1639C9.54243 16.5335 10.8072 16.779 12.248 16.779C13.6888 16.779 14.9536 16.5335 15.8338 16.1639C16.2746 15.9788 16.5909 15.7746 16.7881 15.5788C16.982 15.3862 17.0347 15.2306 17.0348 15.1158V13.5321ZM1.33203 11.7149V4.89348C1.33204 4.38208 1.5833 3.94061 1.93732 3.59016C2.2884 3.24268 2.76618 2.95648 3.30719 2.72964C4.38716 2.27687 5.83363 2.01178 7.4005 2.00998C9.18254 1.92774 10.9495 2.35521 12.468 3.2373C12.7726 3.4144 12.8671 3.79006 12.6792 4.0769C12.4911 4.36384 12.0913 4.45342 11.7864 4.27634C10.487 3.52151 8.9744 3.15648 7.44939 3.22963C7.43854 3.23015 7.42766 3.23032 7.4168 3.23033C5.98234 3.23033 4.71684 3.4755 3.83469 3.84538C3.39297 4.03061 3.07561 4.23511 2.87749 4.43115C2.68239 4.62425 2.63004 4.77967 2.63004 4.89348C2.63004 5.01389 2.68999 5.18463 2.92342 5.39906C3.15887 5.61527 3.53183 5.83652 4.04065 6.03433C4.37172 6.16308 4.52932 6.52046 4.39256 6.83209C4.25578 7.1437 3.87609 7.29205 3.54501 7.16333C3.21508 7.03505 2.90674 6.88699 2.63004 6.72121V8.30418L2.633 8.3516C2.64768 8.46783 2.71911 8.62207 2.92342 8.80975C3.15887 9.02597 3.53181 9.2472 4.04065 9.44503C4.37173 9.57376 4.52932 9.93114 4.39256 10.2428C4.2558 10.5544 3.87611 10.7027 3.54501 10.574C3.21507 10.4457 2.90674 10.2977 2.63004 10.1319V11.7149C2.63004 11.8353 2.68999 12.006 2.92342 12.2204C3.15887 12.4367 3.53179 12.6586 4.04065 12.8564C4.37156 12.9852 4.52926 13.3419 4.39256 13.6535C4.2558 13.9651 3.87611 14.1134 3.54501 13.9847C2.94287 13.7506 2.40995 13.4548 2.01734 13.0942C1.62267 12.7317 1.33203 12.2652 1.33203 11.7149ZM17.0348 10.1207C16.8242 10.2454 16.5959 10.3594 16.3546 10.4604C15.2703 10.9139 13.8178 11.1786 12.248 11.1786C10.6782 11.1786 9.22568 10.9139 8.14137 10.4604C7.90011 10.3594 7.67182 10.2454 7.46125 10.1207V11.7051L7.47236 11.7986C7.49628 11.8997 7.56239 12.0236 7.70796 12.1681C7.90512 12.3639 8.22138 12.5681 8.6622 12.7532C9.54243 13.1229 10.8072 13.3683 12.248 13.3683C13.6888 13.3683 14.9536 13.1229 15.8338 12.7532C16.2746 12.5681 16.5909 12.3639 16.7881 12.1681C16.9336 12.0236 16.9997 11.8997 17.0237 11.7986L17.0348 11.7051V10.1207ZM17.0348 8.29441C17.0348 8.17912 16.9818 8.02307 16.7866 7.82999C16.5882 7.63375 16.2702 7.42923 15.8279 7.24422C14.945 6.87491 13.6799 6.63126 12.248 6.63126C10.8162 6.63126 9.55102 6.87491 8.66812 7.24422C8.22585 7.42923 7.90784 7.63375 7.70944 7.82999C7.51423 8.02306 7.46125 8.17913 7.46125 8.29441C7.4613 8.40965 7.51448 8.56525 7.70944 8.75815C7.90784 8.95438 8.22586 9.1589 8.66812 9.34391C9.55103 9.71326 10.8161 9.95757 12.248 9.95757C13.6799 9.95757 14.945 9.71325 15.8279 9.34391C16.2702 9.1589 16.5882 8.95438 16.7866 8.75815C16.9815 8.56525 17.0347 8.40965 17.0348 8.29441ZM18.332 15.1158C18.332 15.6262 18.0829 16.0676 17.7297 16.4184C17.3795 16.7662 16.9025 17.052 16.3621 17.279C15.2795 17.7335 13.8268 18 12.248 18C10.6692 18 9.21651 17.7335 8.13396 17.279C7.59347 17.052 7.11647 16.7662 6.76631 16.4184C6.41309 16.0676 6.16401 15.6262 6.16398 15.1158V8.29441C6.16398 7.78181 6.41514 7.33928 6.77002 6.9883C7.1217 6.64049 7.60005 6.35492 8.14137 6.12847C9.22569 5.67491 10.6781 5.41021 12.248 5.41021C13.8179 5.41021 15.2703 5.67492 16.3546 6.12847C16.896 6.35492 17.3743 6.6405 17.726 6.9883C18.0809 7.33928 18.332 7.78181 18.332 8.29441V15.1158Z" fill="white"/>
</svg>
