<svg width="20" height="20" viewBox="0 0 20 20" fill="none" xmlns="http://www.w3.org/2000/svg">
<path d="M4.99941 4.92863L3.08866 6.83938L1.91016 5.66086L5.83275 1.73828L9.75535 5.66086L8.57685 6.83938L6.66608 4.92863L6.66607 9.16676H4.99941V4.92863ZM14.1661 7.91679C15.3167 7.91679 16.2494 6.98405 16.2494 5.83346C16.2494 4.68286 15.3167 3.75012 14.1661 3.75012C13.0155 3.75012 12.0828 4.68286 12.0828 5.83346C12.0828 6.98405 13.0155 7.91679 14.1661 7.91679ZM14.1661 9.58343C12.095 9.58343 10.4161 7.90452 10.4161 5.83346C10.4161 3.76239 12.095 2.08346 14.1661 2.08346C16.2372 2.08346 17.9161 3.76239 17.9161 5.83346C17.9161 7.90452 16.2372 9.58343 14.1661 9.58343ZM18.0887 14.3393L16.9102 13.1608L14.9994 15.0716V10.8334H13.3328V15.0716L11.422 13.1608L10.2435 14.3393L14.1661 18.2619L18.0887 14.3393ZM4.16608 15.8334H7.49941L7.49942 12.5001H4.16608V15.8334ZM8.33277 10.8334C8.79302 10.8334 9.1661 11.2065 9.1661 11.6668V16.6668C9.1661 17.127 8.79302 17.5001 8.33277 17.5001H3.33274C2.87251 17.5001 2.49941 17.127 2.49941 16.6668V11.6668C2.49941 11.2065 2.87251 10.8334 3.33275 10.8334H8.33277Z" fill="white"/>
</svg>
