<svg width="20" height="20" viewBox="0 0 20 20" fill="none" xmlns="http://www.w3.org/2000/svg">
<path d="M7.1403 15.2189C7.1403 14.5932 6.89185 13.9931 6.44938 13.5506C6.00691 13.1081 5.40683 12.8597 4.78109 12.8597C4.1554 12.8597 3.55522 13.1082 3.11279 13.5506C2.67043 13.9931 2.42188 14.5932 2.42188 15.2189C2.42192 15.8446 2.67036 16.4448 3.11279 16.8872C3.55522 17.3296 4.1554 17.5781 4.78109 17.5781C5.40676 17.5781 6.00693 17.3296 6.44938 16.8872C6.89181 16.4448 7.14026 15.8446 7.1403 15.2189ZM18.0168 12.561L17.1346 13.4465L15.8439 12.1606V12.2331L15.8382 12.4854C15.7783 13.7401 15.2562 14.9321 14.3677 15.8285C13.4199 16.7846 12.1316 17.3262 10.7853 17.3356L10.1603 17.3405L10.1522 16.0905L10.7772 16.0856C11.793 16.0784 12.7647 15.6694 13.4798 14.9479C14.1905 14.2308 14.59 13.2633 14.5931 12.2542L13.3968 13.4465L12.5146 12.561L15.2653 9.82096L18.0168 12.561ZM9.92269 3.86637L9.29769 3.86719C8.79208 3.86811 8.2915 3.96833 7.82471 4.1626C7.35775 4.35697 6.93336 4.64173 6.57633 5C6.21939 5.35821 5.93655 5.78329 5.74381 6.25081C5.55459 6.7099 5.45599 7.20138 5.45329 7.69775L6.65039 6.50635L7.53255 7.39258L4.78109 10.1318L2.03044 7.39258L2.9126 6.50635L4.20329 7.79134V7.72624C4.2023 7.05677 4.3331 6.3937 4.58822 5.77474C4.84349 5.15541 5.21809 4.59236 5.69092 4.11784C6.16382 3.64329 6.72606 3.26608 7.34456 3.00863C7.96294 2.75129 8.62627 2.61836 9.29606 2.61719L9.92106 2.61637L9.92269 3.86637ZM17.5781 4.78109C17.5781 4.1554 17.3296 3.55522 16.8872 3.11279C16.4448 2.67036 15.8446 2.42192 15.2189 2.42188C14.5932 2.42188 13.9931 2.67043 13.5506 3.11279C13.1082 3.55522 12.8597 4.1554 12.8597 4.78109C12.8597 5.40683 13.1081 6.00691 13.5506 6.44938C13.9931 6.89185 14.5932 7.1403 15.2189 7.1403C15.8446 7.14026 16.4448 6.89181 16.8872 6.44938C17.3296 6.00693 17.5781 5.40676 17.5781 4.78109ZM8.3903 15.2189C8.39026 16.1761 8.01002 17.0941 7.33317 17.771C6.6563 18.4478 5.73828 18.8281 4.78109 18.8281C3.82388 18.8281 2.90585 18.4478 2.229 17.771C1.55215 17.0941 1.17192 16.1761 1.17188 15.2189C1.17188 14.2617 1.55222 13.3437 2.229 12.6668C2.90585 11.99 3.82388 11.6097 4.78109 11.6097C5.73835 11.6097 6.65628 11.9899 7.33317 12.6668C8.01006 13.3437 8.3903 14.2616 8.3903 15.2189ZM18.8281 4.78109C18.8281 5.73828 18.4478 6.6563 17.771 7.33317C17.0941 8.01002 16.1761 8.39026 15.2189 8.3903C14.2616 8.3903 13.3437 8.01006 12.6668 7.33317C11.9899 6.65628 11.6097 5.73835 11.6097 4.78109C11.6097 3.82388 11.99 2.90585 12.6668 2.229C13.3437 1.55222 14.2617 1.17188 15.2189 1.17188C16.1761 1.17192 17.0941 1.55215 17.771 2.229C18.4478 2.90585 18.8281 3.82388 18.8281 4.78109Z" fill="white"/>
</svg>
