<svg width="20" height="20" viewBox="0 0 20 20" fill="none" xmlns="http://www.w3.org/2000/svg">
<path d="M17.0367 13.5321C16.8284 13.6555 16.6026 13.7681 16.364 13.8683C15.2815 14.3228 13.8287 14.5893 12.25 14.5893C10.6712 14.5893 9.21846 14.3228 8.13591 13.8683C7.89731 13.7681 7.67151 13.6555 7.4632 13.5321V15.1158C7.46322 15.2306 7.51593 15.3862 7.70991 15.5788C7.90707 15.7746 8.22333 15.9788 8.66415 16.1639C9.54438 16.5335 10.8092 16.779 12.25 16.779C13.6908 16.779 14.9555 16.5335 15.8358 16.1639C16.2766 15.9788 16.5928 15.7746 16.79 15.5788C16.984 15.3862 17.0367 15.2306 17.0367 15.1158V13.5321ZM1.33398 11.7149V4.89348C1.33399 4.38208 1.58526 3.94061 1.93928 3.59016C2.29035 3.24268 2.76814 2.95648 3.30914 2.72964C4.38911 2.27687 5.83558 2.01178 7.40245 2.00998C9.18449 1.92774 10.9514 2.35521 12.47 3.2373C12.7746 3.4144 12.869 3.79006 12.6811 4.0769C12.493 4.36384 12.0933 4.45342 11.7884 4.27634C10.4889 3.52151 8.97636 3.15648 7.45135 3.22963C7.44049 3.23015 7.42962 3.23032 7.41875 3.23033C5.98429 3.23033 4.7188 3.4755 3.83664 3.84538C3.39493 4.03061 3.07756 4.23511 2.87944 4.43115C2.68434 4.62425 2.63199 4.77967 2.63199 4.89348C2.63199 5.01389 2.69195 5.18463 2.92537 5.39906C3.16083 5.61527 3.53378 5.83652 4.0426 6.03433C4.37367 6.16308 4.53127 6.52046 4.39452 6.83209C4.25774 7.1437 3.87805 7.29205 3.54696 7.16333C3.21703 7.03505 2.90869 6.88699 2.63199 6.72121V8.30418L2.63495 8.3516C2.64963 8.46783 2.72106 8.62207 2.92537 8.80975C3.16082 9.02597 3.53376 9.2472 4.0426 9.44503C4.37369 9.57376 4.53127 9.93114 4.39452 10.2428C4.25775 10.5544 3.87806 10.7027 3.54696 10.574C3.21703 10.4457 2.90869 10.2977 2.63199 10.1319V11.7149C2.63199 11.8353 2.69195 12.006 2.92537 12.2204C3.16082 12.4367 3.53374 12.6586 4.0426 12.8564C4.37351 12.9852 4.53121 13.3419 4.39452 13.6535C4.25775 13.9651 3.87807 14.1134 3.54696 13.9847C2.94482 13.7506 2.4119 13.4548 2.01929 13.0942C1.62462 12.7317 1.33398 12.2652 1.33398 11.7149ZM17.0367 10.1207C16.8262 10.2454 16.5979 10.3594 16.3566 10.4604C15.2723 10.9139 13.8198 11.1786 12.25 11.1786C10.6801 11.1786 9.22763 10.9139 8.14332 10.4604C7.90206 10.3594 7.67378 10.2454 7.4632 10.1207V11.7051L7.47431 11.7986C7.49823 11.8997 7.56434 12.0236 7.70991 12.1681C7.90707 12.3639 8.22333 12.5681 8.66415 12.7532C9.54438 13.1229 10.8092 13.3683 12.25 13.3683C13.6908 13.3683 14.9555 13.1229 15.8358 12.7532C16.2766 12.5681 16.5928 12.3639 16.79 12.1681C16.9356 12.0236 17.0017 11.8997 17.0256 11.7986L17.0367 11.7051V10.1207ZM17.0367 8.29441C17.0367 8.17912 16.9837 8.02307 16.7885 7.82999C16.5901 7.63375 16.2721 7.42923 15.8298 7.24422C14.947 6.87491 13.6818 6.63126 12.25 6.63126C10.8181 6.63126 9.55297 6.87491 8.67008 7.24422C8.22781 7.42923 7.9098 7.63375 7.71139 7.82999C7.51618 8.02306 7.4632 8.17913 7.4632 8.29441C7.46325 8.40965 7.51644 8.56525 7.71139 8.75815C7.9098 8.95438 8.22781 9.1589 8.67008 9.34391C9.55298 9.71326 10.818 9.95757 12.25 9.95757C13.6819 9.95757 14.9469 9.71325 15.8298 9.34391C16.2721 9.1589 16.5901 8.95438 16.7885 8.75815C16.9835 8.56525 17.0367 8.40965 17.0367 8.29441ZM18.334 15.1158C18.334 15.6262 18.0849 16.0676 17.7317 16.4184C17.3815 16.7662 16.9045 17.052 16.364 17.279C15.2815 17.7335 13.8288 18 12.25 18C10.6712 18 9.21846 17.7335 8.13591 17.279C7.59542 17.052 7.11842 16.7662 6.76826 16.4184C6.41504 16.0676 6.16596 15.6262 6.16594 15.1158V8.29441C6.16594 7.78181 6.41709 7.33928 6.77197 6.9883C7.12365 6.64049 7.60201 6.35492 8.14332 6.12847C9.22764 5.67491 10.6801 5.41021 12.25 5.41021C13.8199 5.41021 15.2723 5.67492 16.3566 6.12847C16.8979 6.35492 17.3763 6.6405 17.728 6.9883C18.0828 7.33928 18.334 7.78181 18.334 8.29441V15.1158Z" fill="white"/>
</svg>
