<svg width="24" height="24" viewBox="0 0 24 24" fill="none" xmlns="http://www.w3.org/2000/svg">
<g clip-path="url(#clip0_312_205)">
<path d="M17.2498 15C16.6884 15.0029 16.1348 15.1317 15.6298 15.377C15.1249 15.6224 14.6815 15.9779 14.3323 16.4175L8.84977 12.99C9.04958 12.3452 9.04958 11.6549 8.84977 11.01L14.3323 7.58253C14.8887 8.27157 15.6711 8.74141 16.5408 8.90884C17.4105 9.07626 18.3114 8.93046 19.0839 8.49725C19.8564 8.06404 20.4506 7.3714 20.7614 6.54202C21.0721 5.71263 21.0792 4.80004 20.7815 3.96591C20.4838 3.13177 19.9004 2.42993 19.1348 1.9847C18.3692 1.53948 17.4707 1.37962 16.5984 1.53343C15.7262 1.68725 14.9366 2.14481 14.3694 2.82507C13.8023 3.50533 13.4942 4.36437 13.4998 5.25003C13.5033 5.58542 13.5538 5.91865 13.6498 6.24003L8.16727 9.66753C7.68326 9.05822 7.02168 8.61457 6.27424 8.39808C5.5268 8.18159 4.73052 8.20298 3.99578 8.45929C3.26104 8.7156 2.62424 9.19413 2.17364 9.82856C1.72304 10.463 1.48096 11.2219 1.48096 12C1.48096 12.7782 1.72304 13.5371 2.17364 14.1715C2.62424 14.8059 3.26104 15.2845 3.99578 15.5408C4.73052 15.7971 5.5268 15.8185 6.27424 15.602C7.02168 15.3855 7.68326 14.9418 8.16727 14.3325L13.6498 17.76C13.5538 18.0814 13.5033 18.4146 13.4998 18.75C13.4998 19.4917 13.7197 20.2167 14.1318 20.8334C14.5438 21.4501 15.1295 21.9308 15.8147 22.2146C16.4999 22.4984 17.2539 22.5727 17.9814 22.428C18.7088 22.2833 19.377 21.9261 19.9014 21.4017C20.4259 20.8772 20.783 20.209 20.9277 19.4816C21.0724 18.7542 20.9981 18.0002 20.7143 17.315C20.4305 16.6297 19.9498 16.0441 19.3332 15.632C18.7165 15.22 17.9915 15 17.2498 15ZM17.2498 3.00003C17.6948 3.00003 18.1298 3.13199 18.4998 3.37922C18.8698 3.62646 19.1582 3.97786 19.3285 4.38899C19.4988 4.80013 19.5434 5.25253 19.4565 5.68898C19.3697 6.12544 19.1554 6.52635 18.8408 6.84102C18.5261 7.15569 18.1252 7.36998 17.6887 7.4568C17.2523 7.54361 16.7999 7.49906 16.3887 7.32876C15.9776 7.15846 15.6262 6.87007 15.379 6.50006C15.1317 6.13005 14.9998 5.69504 14.9998 5.25003C14.9998 4.65329 15.2368 4.081 15.6588 3.65904C16.0807 3.23708 16.653 3.00003 17.2498 3.00003ZM5.24977 14.25C4.80476 14.25 4.36975 14.1181 3.99974 13.8708C3.62973 13.6236 3.34134 13.2722 3.17104 12.8611C3.00075 12.4499 2.95619 11.9975 3.04301 11.5611C3.12982 11.1246 3.34411 10.7237 3.65878 10.409C3.97345 10.0944 4.37436 9.88008 4.81082 9.79326C5.24728 9.70645 5.69968 9.751 6.11081 9.9213C6.52194 10.0916 6.87335 10.38 7.12058 10.75C7.36781 11.12 7.49977 11.555 7.49977 12C7.49977 12.5968 7.26272 13.1691 6.84076 13.591C6.41881 14.013 5.84651 14.25 5.24977 14.25ZM17.2498 21C16.8048 21 16.3698 20.8681 15.9997 20.6208C15.6297 20.3736 15.3413 20.0222 15.171 19.6111C15.0007 19.1999 14.9562 18.7475 15.043 18.3111C15.1298 17.8746 15.3441 17.4737 15.6588 17.159C15.9734 16.8444 16.3744 16.6301 16.8108 16.5433C17.2473 16.4564 17.6997 16.501 18.1108 16.6713C18.5219 16.8416 18.8733 17.13 19.1206 17.5C19.3678 17.87 19.4998 18.305 19.4998 18.75C19.4998 19.3468 19.2627 19.9191 18.8408 20.341C18.4188 20.763 17.8465 21 17.2498 21Z" fill="black"/>
</g>
<defs>
<clipPath id="clip0_312_205">
<rect width="24" height="24" fill="white"/>
</clipPath>
</defs>
</svg>
