<svg width="24" height="24" viewBox="0 0 24 24" fill="none" xmlns="http://www.w3.org/2000/svg">
<path fill-rule="evenodd" clip-rule="evenodd" d="M10.682 3.36181C10.2725 1.53705 7.68539 1.55021 7.2922 3.37657L7.25302 3.55861C6.83558 5.49771 5.31057 6.97177 3.41254 7.30754C1.52915 7.64072 1.52915 10.3593 3.41254 10.6925C5.31057 11.0282 6.83558 12.5023 7.25302 14.4414L7.2922 14.6234C7.68537 16.4498 10.2725 16.463 10.682 14.6382L10.7295 14.426C11.1629 12.4941 12.6899 11.0307 14.5849 10.6955C16.4717 10.3617 16.4717 7.6383 14.5849 7.30454C12.6899 6.96928 11.1629 5.50596 10.7295 3.57396L10.682 3.36181Z" fill="url(#paint0_linear_600_26390)"/>
<path fill-rule="evenodd" clip-rule="evenodd" d="M18.9611 14.7782C18.7271 13.7355 17.2488 13.743 17.0241 14.7866L17.0017 14.8906C16.7632 15.9987 15.8918 16.841 14.8072 17.0329C13.7309 17.2233 13.7309 18.7767 14.8072 18.9671C15.8918 19.159 16.7632 20.0013 17.0017 21.1094L17.0241 21.2134C17.2488 22.257 18.7271 22.2645 18.9611 21.2218L18.9883 21.1006C19.2359 19.9966 20.1085 19.1604 21.1914 18.9688C22.2695 18.7781 22.2695 17.2219 21.1914 17.0312C20.1085 16.8396 19.2359 16.0034 18.9883 14.8994L18.9611 14.7782Z" fill="url(#paint1_linear_600_26390)"/>
<defs>
<linearGradient id="paint0_linear_600_26390" x1="18.5481" y1="37.6266" x2="-21.107" y2="9.45794" gradientUnits="userSpaceOnUse">
<stop stop-color="#FFD600"/>
<stop offset="1" stop-color="#FF007A"/>
</linearGradient>
<linearGradient id="paint1_linear_600_26390" x1="23.456" y1="34.3581" x2="0.796005" y2="18.2617" gradientUnits="userSpaceOnUse">
<stop stop-color="#FFD600"/>
<stop offset="1" stop-color="#FF007A"/>
</linearGradient>
</defs>
</svg>
