<svg width="30" height="30" viewBox="0 0 30 30" fill="none" xmlns="http://www.w3.org/2000/svg">
<path d="M23.916 3.76953C26.4571 3.76964 28.535 5.84757 28.5352 8.38867V19.541C28.5352 22.0735 26.466 24.1522 23.9248 24.1523H17.5146L16.4229 26.0391L15.3486 27.8984C15.1478 28.239 14.6589 28.239 14.4668 27.8984L13.3926 26.0391L12.3008 24.1523H5.96094C3.42833 24.1523 1.34961 22.0824 1.34961 19.541V8.37988C1.34984 5.84747 3.41974 3.76953 5.96094 3.76953H23.916ZM21.6631 11.9521C20.3794 11.9521 19.34 13.0262 19.3398 14.3447C19.3398 15.6634 20.3793 16.7383 21.6631 16.7383C22.1955 16.7382 22.6842 16.5545 23.0684 16.249V16.9121C23.0684 16.9121 22.929 17.5672 21.9512 17.5674V18.7988C21.9722 18.8012 23.0175 18.9121 23.9512 17.9785C23.9512 17.9785 24.3872 17.5154 24.4834 16.9043V12.0479H23.0684V12.4414C22.6755 12.1359 22.1869 11.9523 21.6631 11.9521ZM5.40137 16.79H6.79883V16.3447C7.19182 16.6941 7.69005 16.9121 8.24023 16.9121C9.48881 16.9119 10.5018 15.8035 10.502 14.4326C10.502 13.0617 9.49761 11.9436 8.24023 11.9434C7.69885 11.9434 7.1918 12.1528 6.79883 12.5107V10.459H5.40137V16.79ZM16.1953 11.9434C14.8069 11.9435 13.6807 13.0528 13.6807 14.4238C13.6808 15.7947 14.807 16.9041 16.1953 16.9043C17.5838 16.9043 18.7108 15.7948 18.7109 14.4238C18.7109 13.0527 17.5926 11.9434 16.1953 11.9434ZM10.6592 10.3369V11.6025C10.6719 11.6043 11.3067 11.6969 11.4277 12.3193V16.79H12.8682V12.2842C12.7808 11.6554 12.4053 11.1836 12.4053 11.1836C11.5912 10.2225 10.6743 10.335 10.6592 10.3369ZM7.95996 13.1836C8.65861 13.1836 9.21777 13.7339 9.21777 14.4238C9.21767 15.1137 8.65855 15.6641 7.95996 15.6641C7.44501 15.6639 6.99977 15.3582 6.80762 14.9131C6.74651 14.7647 6.70316 14.5984 6.70312 14.4238C6.70312 14.2492 6.73775 14.083 6.80762 13.9346C6.9997 13.4893 7.44489 13.1838 7.95996 13.1836ZM16.1953 13.2363C16.859 13.2363 17.4004 13.7688 17.4004 14.4238C17.4003 15.0787 16.8677 15.6113 16.1953 15.6113C15.5318 15.6111 14.9903 15.0786 14.9902 14.4238C14.9902 13.769 15.5318 13.2365 16.1953 13.2363ZM21.9248 13.1133C22.4225 13.1133 22.8588 13.3933 23.0684 13.7949C23.1556 13.9607 23.1992 14.144 23.1992 14.3359C23.1992 14.5281 23.147 14.7207 23.0684 14.8779C22.8587 15.2882 22.4224 15.5585 21.9248 15.5586C21.2174 15.5586 20.6494 15.0084 20.6494 14.3359C20.6496 13.6637 21.2263 13.1133 21.9248 13.1133Z" fill="white"/>
</svg>
