<svg width="24" height="24" viewBox="0 0 24 24" fill="none" xmlns="http://www.w3.org/2000/svg">
<g clip-path="url(#clip0_600_26767)">
<path d="M18 15.75V17.25H19.3112C17.634 19.5897 14.9345 21 12 21C7.03732 21 3 16.9625 3 12H1.5C1.5 17.7898 6.21023 22.5 12 22.5C15.2662 22.5 18.2807 20.9993 20.25 18.4911V19.5H21.75V15.75H18Z" fill="#151414"/>
<path d="M16.8785 8.72757L12.3873 6.10257C12.2677 6.0326 12.1337 5.99855 12 6.00005C11.8726 6.00155 11.7455 6.0356 11.6314 6.10182L7.1226 8.72682C6.8919 8.86122 6.75 9.10805 6.75 9.37505V14.625C6.75 14.892 6.8919 15.1389 7.1226 15.2733L11.6314 17.8983C11.748 17.966 11.8696 18 12 18C12.1307 18 12.2703 17.966 12.3873 17.8975L16.8785 15.2725C17.1087 15.1381 17.2501 14.8917 17.2501 14.625V9.37505C17.2501 9.10842 17.1087 8.86197 16.8785 8.72757ZM12.0081 7.61832L15.0138 9.37505L12.0081 11.1318L8.9907 9.37505L12.0081 7.61832ZM8.25007 10.6794L11.2501 12.4263V15.9404L8.25007 14.1936V10.6794ZM12.7501 15.9481V12.4354L15.7501 10.682V14.1947L12.7501 15.9481Z" fill="#151414"/>
<path d="M12 1.5C8.73375 1.5 5.71927 3.00075 3.75 5.5089V4.5H2.25V8.25H6V6.75H4.68878C6.366 4.4103 9.06555 3 12 3C16.9627 3 21 7.03748 21 12H22.5C22.5 6.21023 17.7898 1.5 12 1.5Z" fill="#151414"/>
</g>
<defs>
<clipPath id="clip0_600_26767">
<rect width="24" height="24" fill="white"/>
</clipPath>
</defs>
</svg>
