<svg width="24" height="24" viewBox="0 0 24 24" fill="none" xmlns="http://www.w3.org/2000/svg">
<g clip-path="url(#clip0_600_26930)">
<path d="M12 9.00391C12.5933 9.00391 13.1734 9.17985 13.6667 9.5095C14.1601 9.83914 14.5446 10.3077 14.7716 10.8559C14.9987 11.404 15.0581 12.0072 14.9424 12.5892C14.8266 13.1711 14.5409 13.7057 14.1213 14.1252C13.7018 14.5448 13.1672 14.8305 12.5853 14.9463C12.0033 15.062 11.4001 15.0026 10.852 14.7755C10.3038 14.5485 9.83524 14.164 9.50559 13.6706C9.17595 13.1773 9 12.5972 9 12.0039C9.0009 11.2085 9.31725 10.446 9.87967 9.88357C10.4421 9.32116 11.2046 9.0048 12 9.00391ZM12 7.50391C11.11 7.50391 10.24 7.76783 9.49994 8.26229C8.75991 8.75676 8.18314 9.45956 7.84254 10.2818C7.50195 11.1041 7.41283 12.0089 7.58647 12.8818C7.7601 13.7547 8.18869 14.5566 8.81802 15.1859C9.44736 15.8152 10.2492 16.2438 11.1221 16.4174C11.995 16.5911 12.8998 16.502 13.7221 16.1614C14.5443 15.8208 15.2471 15.244 15.7416 14.504C16.2361 13.764 16.5 12.8939 16.5 12.0039C16.5 10.8104 16.0259 9.66584 15.182 8.82193C14.3381 7.97801 13.1935 7.50391 12 7.50391Z" fill="#151414"/>
<path d="M4.04688 5.10938L5.10743 4.04882L7.73681 6.6782L6.67625 7.73875L4.04688 5.10938Z" fill="#151414"/>
<path d="M1.5 11.2539H5.25V12.7539H1.5V11.2539Z" fill="#151414"/>
<path d="M4.04688 18.8984L6.67625 16.2691L7.73681 17.3296L5.10743 19.959L4.04688 18.8984Z" fill="#151414"/>
<path d="M11.25 18.7539H12.75V22.5039H11.25V18.7539Z" fill="#151414"/>
<path d="M16.2656 17.3281L17.3262 16.2676L19.9556 18.8969L18.895 19.9575L16.2656 17.3281Z" fill="#151414"/>
<path d="M18.75 11.2539H22.5V12.7539H18.75V11.2539Z" fill="#151414"/>
<path d="M16.2656 6.67969L18.895 4.05031L19.9556 5.11087L17.3262 7.74024L16.2656 6.67969Z" fill="#151414"/>
<path d="M11.25 1.50391H12.75V5.25391H11.25V1.50391Z" fill="#151414"/>
</g>
<defs>
<clipPath id="clip0_600_26930">
<rect width="24" height="24" fill="white"/>
</clipPath>
</defs>
</svg>
