<svg width="48" height="48" viewBox="0 0 48 48" fill="none" xmlns="http://www.w3.org/2000/svg">
<rect width="48" height="48" rx="24" fill="#FFE812"/>
<path d="M24.1872 12C16.8577 12 10.916 16.6848 10.916 22.4638C10.916 26.2 13.4 29.4784 17.1366 31.3296C16.9333 32.0306 15.8303 35.8397 15.7864 36.139C15.7864 36.139 15.76 36.3638 15.9056 36.4496C16.0512 36.5353 16.2224 36.4687 16.2224 36.4687C16.64 36.4104 21.0642 33.3026 21.83 32.763C22.595 32.8713 23.3827 32.9276 24.1872 32.9276C31.5167 32.9276 37.4583 28.2429 37.4583 22.4638C37.4583 16.6848 31.5167 12 24.1872 12Z" fill="black"/>
<path d="M16.8498 26.1165C16.4276 26.1165 16.0842 25.7886 16.0842 25.3853V20.8368H14.8895C14.4752 20.8368 14.1382 20.5004 14.1382 20.0871C14.1382 19.6738 14.4753 19.3374 14.8895 19.3374H18.8101C19.2245 19.3374 19.5615 19.6738 19.5615 20.0871C19.5615 20.5004 19.2244 20.8368 18.8101 20.8368H17.6155V25.3853C17.6155 25.7886 17.2721 26.1165 16.8498 26.1165ZM23.5635 26.1066C23.2442 26.1066 23 25.9769 22.9264 25.7684L22.5472 24.7759L20.2125 24.7758L19.8332 25.7689C19.7598 25.9771 19.5157 26.1066 19.1964 26.1066C19.0285 26.1068 18.8625 26.0707 18.7097 26.0009C18.4987 25.9036 18.2958 25.6358 18.5283 24.9137L20.3597 20.0932C20.4887 19.7266 20.8806 19.3489 21.3793 19.3375C21.8793 19.3488 22.2712 19.7266 22.4005 20.094L24.2311 24.9123C24.4642 25.6361 24.2613 25.9039 24.0502 26.0011C23.8974 26.0707 23.7314 26.1067 23.5635 26.1066ZM22.1446 23.4197L21.3799 21.2472L20.6151 23.4197H22.1446ZM25.4633 26.0049C25.0587 26.0049 24.7296 25.6899 24.7296 25.303V20.103C24.7296 19.6808 25.0802 19.3374 25.5112 19.3374C25.9421 19.3374 26.2928 19.6808 26.2928 20.103V24.6012H27.9198C28.3244 24.6012 28.6535 24.9161 28.6535 25.303C28.6535 25.6899 28.3244 26.0049 27.9198 26.0049H25.4633ZM29.717 26.1066C29.2947 26.1066 28.9513 25.7632 28.9513 25.3409V20.103C28.9513 19.6808 29.2947 19.3374 29.717 19.3374C30.1392 19.3374 30.4826 19.6808 30.4826 20.103V21.7487L32.6188 19.6125C32.7286 19.5027 32.8796 19.4422 33.0435 19.4422C33.2346 19.4422 33.4265 19.5246 33.5703 19.6683C33.7045 19.8023 33.7845 19.9747 33.7954 20.1537C33.8065 20.3343 33.7464 20.4998 33.6265 20.6199L31.8817 22.3644L33.7663 24.8611C33.8272 24.9412 33.8715 25.0326 33.8968 25.13C33.922 25.2274 33.9276 25.3288 33.9133 25.4284C33.8997 25.528 33.8664 25.6239 33.8154 25.7106C33.7644 25.7973 33.6967 25.873 33.6163 25.9333C33.4839 26.0339 33.3221 26.0882 33.1557 26.0878C33.0371 26.0884 32.92 26.0611 32.8138 26.0083C32.7076 25.9554 32.6152 25.8784 32.5441 25.7835L30.7486 23.4044L30.4829 23.6701V25.3406C30.4826 25.5436 30.4019 25.7383 30.2583 25.8819C30.1147 26.0255 29.9201 26.1063 29.717 26.1066Z" fill="#FFE812"/>
</svg>
