<svg width="24" height="24" viewBox="0 0 24 24" fill="none" xmlns="http://www.w3.org/2000/svg">
<g clip-path="url(#clip0_600_26794)">
<path d="M6.00001 13.95V12.75H4.50001V13.95C4.49836 14.6793 4.64079 15.4017 4.91912 16.0758C5.19745 16.7499 5.60619 17.3624 6.12189 17.8781C6.63758 18.3938 7.25007 18.8026 7.92417 19.0809C8.59827 19.3592 9.32071 19.5017 10.05 19.5H11.25V18H10.05C9.51754 18.0022 8.98989 17.899 8.49751 17.6963C8.00513 17.4935 7.55778 17.1953 7.18125 16.8188C6.80473 16.4422 6.5065 15.9949 6.30375 15.5025C6.10101 15.0101 5.99778 14.4825 6.00001 13.95Z" fill="#151414"/>
<path d="M21 13.5H15C14.6025 13.5012 14.2217 13.6596 13.9406 13.9406C13.6596 14.2217 13.5012 14.6025 13.5 15V21C13.5012 21.3975 13.6596 21.7783 13.9406 22.0594C14.2217 22.3404 14.6025 22.4988 15 22.5H21C21.3975 22.4988 21.7783 22.3404 22.0594 22.0594C22.3404 21.7783 22.4988 21.3975 22.5 21V15C22.4988 14.6025 22.3404 14.2217 22.0594 13.9406C21.7783 13.6596 21.3975 13.5012 21 13.5ZM15 21V15H21V21H15Z" fill="#151414"/>
<path d="M18 10.05V11.25H19.5V10.05C19.5017 9.32071 19.3592 8.59827 19.0809 7.92417C18.8026 7.25007 18.3938 6.63758 17.8781 6.12189C17.3624 5.60619 16.7499 5.19745 16.0758 4.91912C15.4017 4.64079 14.6793 4.49836 13.95 4.50001H12.75V6.00001H13.95C14.4825 5.99778 15.0101 6.10101 15.5025 6.30375C15.9949 6.5065 16.4422 6.80473 16.8188 7.18125C17.1953 7.55778 17.4935 8.00513 17.6963 8.49751C17.899 8.98989 18.0022 9.51754 18 10.05Z" fill="#151414"/>
<path d="M9 1.5H3C2.60253 1.50117 2.22168 1.65958 1.94063 1.94063C1.65958 2.22168 1.50117 2.60253 1.5 3V9C1.50117 9.39747 1.65958 9.77832 1.94063 10.0594C2.22168 10.3404 2.60253 10.4988 3 10.5H9C9.39747 10.4988 9.77832 10.3404 10.0594 10.0594C10.3404 9.77832 10.4988 9.39747 10.5 9V3C10.4988 2.60253 10.3404 2.22168 10.0594 1.94063C9.77832 1.65958 9.39747 1.50117 9 1.5ZM3 9V3H9V9H3Z" fill="#151414"/>
</g>
<defs>
<clipPath id="clip0_600_26794">
<rect width="24" height="24" fill="white"/>
</clipPath>
</defs>
</svg>
