<svg width="24" height="24" viewBox="0 0 24 24" fill="none" xmlns="http://www.w3.org/2000/svg">
<g clip-path="url(#clip0_600_26754)">
<path d="M18 7.5H17.25V1.5H15.75V7.5H15C14.6023 7.50046 14.221 7.65864 13.9398 7.93984C13.6586 8.22105 13.5005 8.60232 13.5 9V15C13.5005 15.3977 13.6586 15.7789 13.9398 16.0602C14.221 16.3414 14.6023 16.4995 15 16.5H15.75V22.5H17.25V16.5H18C18.3977 16.4995 18.779 16.3414 19.0602 16.0602C19.3414 15.7789 19.4995 15.3977 19.5 15V9C19.4995 8.60232 19.3414 8.22105 19.0602 7.93984C18.779 7.65864 18.3977 7.50046 18 7.5ZM18 15H15V9H18V15Z" fill="#151414"/>
<path d="M9 4.5H8.25V1.5H6.75V4.5H6C5.60232 4.50046 5.22105 4.65864 4.93984 4.93984C4.65864 5.22105 4.50046 5.60232 4.5 6V18C4.50046 18.3977 4.65864 18.7789 4.93984 19.0602C5.22105 19.3414 5.60232 19.4995 6 19.5H6.75V22.5H8.25V19.5H9C9.39768 19.4995 9.77895 19.3414 10.0602 19.0602C10.3414 18.7789 10.4995 18.3977 10.5 18V6C10.4995 5.60232 10.3414 5.22105 10.0602 4.93984C9.77895 4.65864 9.39768 4.50046 9 4.5ZM9 18H6V6H9V18Z" fill="#151414"/>
</g>
<defs>
<clipPath id="clip0_600_26754">
<rect width="24" height="24" fill="white"/>
</clipPath>
</defs>
</svg>
