<svg width="48" height="48" viewBox="0 0 48 48" fill="none" xmlns="http://www.w3.org/2000/svg">
<rect width="48" height="48" rx="24" fill="#3DC318"/>
<path d="M32.917 12.7695C35.4581 12.7696 37.5359 14.8475 37.5361 17.3886V28.541C37.5361 31.0735 35.467 33.1522 32.9258 33.1523H26.5156L25.4238 35.039L24.3496 36.8984C24.1487 37.239 23.6599 37.239 23.4678 36.8984L22.3936 35.039L21.3018 33.1523H14.9619C12.4293 33.1523 10.3506 31.0823 10.3506 28.541V17.3799C10.3508 14.8474 12.4207 12.7695 14.9619 12.7695H32.917ZM30.6641 20.9521C29.3804 20.9521 28.341 22.0261 28.3408 23.3447C28.3408 24.6634 29.3803 25.7383 30.6641 25.7383C31.1965 25.7381 31.6852 25.5544 32.0693 25.249V25.9121C32.0693 25.9121 31.9299 26.5672 30.9521 26.5674V27.7988C30.9732 27.8011 32.0185 27.9121 32.9521 26.9785C32.9521 26.9785 33.3882 26.5154 33.4844 25.9043V21.0478H32.0693V21.4414C31.6765 21.1359 31.1878 20.9522 30.6641 20.9521ZM14.4023 25.79H15.7998V25.3447C16.1928 25.694 16.691 25.9121 17.2412 25.9121C18.4898 25.9118 19.5028 24.8034 19.5029 23.4326C19.5029 22.0616 18.4986 20.9436 17.2412 20.9433C16.6998 20.9433 16.1928 21.1527 15.7998 21.5107V19.459H14.4023V25.79ZM25.1963 20.9433C23.8079 20.9435 22.6816 22.0528 22.6816 23.4238C22.6817 24.7947 23.8079 25.9041 25.1963 25.9043C26.5848 25.9043 27.7118 24.7948 27.7119 23.4238C27.7119 22.0527 26.5936 20.9433 25.1963 20.9433ZM19.6602 19.3369V20.6025C19.6729 20.6043 20.3077 20.6968 20.4287 21.3193V25.79H21.8691V21.2841C21.7818 20.6554 21.4062 20.1836 21.4062 20.1836C20.5922 19.2224 19.6753 19.335 19.6602 19.3369ZM16.9609 22.1836C17.6596 22.1836 18.2188 22.7339 18.2188 23.4238C18.2186 24.1136 17.6595 24.664 16.9609 24.664C16.446 24.6639 16.0008 24.3581 15.8086 23.9131C15.7475 23.7646 15.7041 23.5984 15.7041 23.4238C15.7041 23.2491 15.7387 23.083 15.8086 22.9345C16.0007 22.4893 16.4459 22.1837 16.9609 22.1836ZM25.1963 22.2363C25.86 22.2363 26.4014 22.7688 26.4014 23.4238C26.4013 24.0787 25.8687 24.6113 25.1963 24.6113C24.5328 24.6111 23.9913 24.0786 23.9912 23.4238C23.9912 22.7689 24.5327 22.2365 25.1963 22.2363ZM30.9258 22.1133C31.4235 22.1133 31.8597 22.3933 32.0693 22.7949C32.1566 22.9607 32.2001 23.1439 32.2002 23.3359C32.2002 23.528 32.1479 23.7207 32.0693 23.8779C31.8597 24.2882 31.4234 24.5585 30.9258 24.5586C30.2184 24.5586 29.6504 24.0084 29.6504 23.3359C29.6506 22.6636 30.2273 22.1133 30.9258 22.1133Z" fill="white"/>
</svg>
