<svg width="20" height="20" viewBox="0 0 20 20" fill="none" xmlns="http://www.w3.org/2000/svg">
<path d="M15.7404 5.18114L15.7431 5.17889C15.6901 5.11582 15.6294 5.06006 15.5744 4.99872C15.4681 4.88047 15.3625 4.76233 15.2493 4.65106C15.1695 4.57276 15.0845 4.5004 15.0012 4.4258C14.8955 4.33096 14.7902 4.23634 14.6792 4.14767C14.5874 4.07393 14.492 4.00549 14.3968 3.93625C14.286 3.85553 14.1744 3.77666 14.0591 3.70205C13.9585 3.63702 13.8558 3.5759 13.752 3.51537C13.6335 3.44672 13.5133 3.38122 13.3913 3.31888C13.2848 3.26457 13.1778 3.21245 13.0682 3.16321C12.9399 3.10555 12.8092 3.05286 12.677 3.00218C12.5678 2.96049 12.4591 2.91829 12.3474 2.88168C12.2054 2.83469 12.0601 2.79554 11.9144 2.75697C11.8077 2.72855 11.7024 2.69787 11.5939 2.67446C11.4266 2.63791 11.2556 2.61254 11.0843 2.58752C10.9926 2.57426 10.9029 2.5557 10.8101 2.54555C9.5781 2.40884 8.33146 2.58102 7.18277 3.04651C6.03408 3.51201 5.01953 4.25617 4.23078 5.21175V3.07673H3.07693V7.68914H7.69231V6.53604H4.69895C5.27215 5.6521 6.05735 4.92536 6.98316 4.4219C7.90896 3.91844 8.94601 3.65423 10 3.65328C10.2292 3.65387 10.4582 3.66675 10.686 3.69185C10.7645 3.70027 10.8406 3.71606 10.9182 3.72731C11.063 3.74841 11.2075 3.77009 11.3491 3.80082C11.4409 3.82077 11.5305 3.84694 11.6209 3.87087C11.7439 3.90327 11.8666 3.93648 11.9864 3.97592C12.0812 4.00745 12.1739 4.0432 12.2667 4.07866C12.3779 4.12144 12.488 4.16566 12.5959 4.21409C12.6888 4.256 12.7801 4.30057 12.8707 4.3467C12.9736 4.39909 13.0748 4.45418 13.1742 4.51199C13.2625 4.56348 13.35 4.61577 13.4356 4.67101C13.5325 4.73379 13.6265 4.80027 13.7196 4.86778C13.8007 4.92694 13.8821 4.98523 13.9602 5.04796C14.0534 5.12256 14.1423 5.20224 14.2313 5.28221C14.302 5.34563 14.3743 5.40721 14.442 5.47362C14.5383 5.56795 14.628 5.66844 14.7181 5.76865C15.4046 6.53396 15.8946 7.45466 16.1458 8.45136C16.397 9.44806 16.4018 10.4909 16.16 11.4899C15.9181 12.4889 15.4367 13.4141 14.7574 14.1858C14.078 14.9574 13.221 15.5524 12.2603 15.9194C11.2996 16.2864 10.2641 16.4144 9.24284 16.2924C8.22163 16.1703 7.24544 15.8019 6.39842 15.2189C5.55141 14.6359 4.85898 13.8557 4.38085 12.9457C3.90271 12.0357 3.65321 11.0232 3.65385 9.99535H2.50001C2.49848 11.201 2.78801 12.3892 3.34403 13.4592C3.90005 14.5292 4.70615 15.4493 5.69393 16.1415C6.6817 16.8338 7.82199 17.2776 9.01803 17.4355C10.2141 17.5933 11.4306 17.4605 12.5643 17.0483C13.698 16.6361 14.7155 15.9566 15.5304 15.0676C16.3453 14.1785 16.9336 13.1062 17.2453 11.9414C17.557 10.7767 17.583 9.55405 17.321 8.37717C17.059 7.20028 16.5168 6.10393 15.7404 5.18114Z" fill="white"/>
</svg>
