<svg width="48" height="48" viewBox="0 0 48 48" fill="none" xmlns="http://www.w3.org/2000/svg">
<rect width="48" height="48" rx="24" fill="#FF0076"/>
<path d="M18.3054 10.3462C16.8424 10.4152 15.8433 10.6487 14.9699 10.9919C14.066 11.3441 13.2998 11.8169 12.5375 12.5819C11.7752 13.347 11.3058 14.1137 10.956 15.019C10.6174 15.8943 10.3881 16.8942 10.3234 18.358C10.2588 19.8219 10.2445 20.2924 10.2517 24.0264C10.2588 27.7603 10.2753 28.2284 10.3463 29.6952C10.4161 31.158 10.6488 32.1568 10.992 33.0304C11.3448 33.9344 11.817 34.7002 12.5823 35.4628C13.3477 36.2254 14.1138 36.6937 15.0213 37.0441C15.8958 37.3821 16.896 37.6125 18.3596 37.6766C19.8231 37.7407 20.2942 37.7555 24.0271 37.7484C27.76 37.7412 28.23 37.7247 29.6966 37.6551C31.1632 37.5856 32.1567 37.3513 33.0307 37.0097C33.9346 36.6561 34.7011 36.1847 35.4631 35.4191C36.2251 34.6535 36.6943 33.8862 37.0438 32.9804C37.3826 32.1059 37.6128 31.1057 37.6763 29.6433C37.7404 28.1756 37.7555 27.707 37.7484 23.9736C37.7412 20.2401 37.7245 19.7721 37.6549 18.3058C37.5853 16.8395 37.3524 15.8437 37.0094 14.9695C36.6561 14.0656 36.1844 13.3002 35.4194 12.5371C34.6543 11.774 33.8865 11.3051 32.9809 10.9564C32.1059 10.6179 31.1062 10.3871 29.6427 10.3239C28.1791 10.2606 27.708 10.2444 23.9738 10.2516C20.2395 10.2587 19.772 10.2747 18.3054 10.3462ZM18.466 35.203C17.1254 35.1446 16.3974 34.9219 15.9123 34.7354C15.2699 34.4879 14.8123 34.1887 14.3289 33.71C13.8454 33.2312 13.5484 32.7719 13.2976 32.1309C13.1092 31.6458 12.8823 30.9187 12.8196 29.5781C12.7514 28.1291 12.7371 27.694 12.7292 24.0231C12.7212 20.3521 12.7352 19.9176 12.7987 18.468C12.8559 17.1285 13.0801 16.3998 13.2663 15.9149C13.5138 15.2717 13.8119 14.8149 14.2917 14.3318C14.7716 13.8486 15.2295 13.551 15.8711 13.3002C16.3556 13.111 17.0827 12.8861 18.4228 12.8223C19.8729 12.7535 20.3074 12.7398 23.9779 12.7318C27.6483 12.7238 28.084 12.7376 29.5346 12.8014C30.8741 12.8597 31.6032 13.0816 32.0874 13.2689C32.7301 13.5164 33.1875 13.8137 33.6706 14.2944C34.1538 14.7751 34.4516 15.2313 34.7024 15.8742C34.8919 16.3574 35.1169 17.0842 35.1801 18.4251C35.2491 19.8752 35.2648 20.31 35.2714 23.9802C35.278 27.6503 35.2651 28.0862 35.2016 29.5352C35.143 30.8758 34.9208 31.604 34.7341 32.0897C34.4866 32.7318 34.1882 33.1897 33.708 33.6726C33.2279 34.1555 32.7706 34.453 32.1287 34.7038C31.6447 34.8927 30.9168 35.1182 29.5778 35.1821C28.1277 35.2502 27.6932 35.2645 24.0213 35.2725C20.3495 35.2805 19.9164 35.2657 18.4663 35.203M29.6754 16.6511C29.6759 16.9775 29.7733 17.2963 29.955 17.5674C30.1368 17.8384 30.3949 18.0495 30.6966 18.1739C30.9984 18.2982 31.3302 18.3303 31.6502 18.2661C31.9702 18.2018 32.2639 18.0441 32.4943 17.8129C32.7246 17.5818 32.8813 17.2874 32.9443 16.9672C33.0074 16.647 32.9741 16.3153 32.8486 16.014C32.7231 15.7127 32.5111 15.4554 32.2394 15.2746C31.9677 15.0939 31.6485 14.9977 31.3221 14.9984C30.8846 14.9992 30.4653 15.1738 30.1565 15.4838C29.8477 15.7937 29.6747 16.2136 29.6754 16.6511ZM16.94 24.0137C16.9477 27.9132 20.1146 31.0672 24.0134 31.0598C27.9121 31.0524 31.0683 27.8857 31.0609 23.9862C31.0534 20.0867 27.8857 16.9319 23.9864 16.9396C20.0871 16.9473 16.9326 20.1147 16.94 24.0137ZM19.4167 24.0088C19.4149 23.1022 19.682 22.2156 20.1841 21.4608C20.6863 20.7061 21.4009 20.1172 22.2378 19.7686C23.0746 19.4201 23.996 19.3275 24.8854 19.5026C25.7749 19.6777 26.5925 20.1126 27.2347 20.7523C27.877 21.392 28.3152 22.2079 28.4938 23.0966C28.6724 23.9854 28.5834 24.9071 28.2382 25.7453C27.8929 26.5835 27.3069 27.3005 26.5541 27.8056C25.8014 28.3108 24.9158 28.5813 24.0092 28.5831C23.4073 28.5844 22.811 28.4671 22.2544 28.2379C21.6979 28.0086 21.1919 27.672 20.7654 27.2473C20.3389 26.8225 20.0003 26.3178 19.7689 25.7622C19.5375 25.2065 19.4178 24.6107 19.4167 24.0088Z" fill="white"/>
</svg>
