<svg width="20" height="20" viewBox="0 0 20 20" fill="none" xmlns="http://www.w3.org/2000/svg">
<path d="M10.002 3.54199C10.0523 3.542 15.7387 3.54333 17.165 3.92969C17.954 4.13993 18.5749 4.7641 18.7852 5.55957C19.1668 6.99868 19.1631 10 19.1631 10C19.1631 10.021 19.1625 13.0064 18.7822 14.4404C18.572 15.2327 17.9502 15.8569 17.1611 16.0703C15.7309 16.455 9.99805 16.4551 9.99805 16.4551C9.94772 16.4551 4.25805 16.4535 2.83496 16.0703C2.04602 15.8601 1.42511 15.2358 1.21484 14.4404C0.834577 13.0064 0.833013 10.021 0.833008 10C0.833008 10 0.833012 6.9991 1.21777 5.55664C1.42798 4.76432 2.04978 4.1402 2.83887 3.92676C4.26892 3.54202 10.002 3.54199 10.002 3.54199ZM8.12598 12.7266L12.9189 10L8.12598 7.27344V12.7266Z" fill="#FF0000"/>
</svg>
