<svg width="32" height="32" viewBox="0 0 32 32" fill="none" xmlns="http://www.w3.org/2000/svg">
<path d="M20.6667 13.3333C20.6667 9.28324 17.3834 6 13.3333 6C9.28324 6 6 9.28324 6 13.3333C6 17.3834 9.28324 20.6667 13.3333 20.6667V22.6667C8.17868 22.6667 4 18.488 4 13.3333C4 8.17868 8.17868 4 13.3333 4C18.488 4 22.6667 8.17868 22.6667 13.3333C22.6667 18.488 18.488 22.6667 13.3333 22.6667V20.6667C17.3834 20.6667 20.6667 17.3834 20.6667 13.3333Z" fill="#242323"/>
<path d="M27.3737 25.9596L25.9596 27.3737L17.9596 19.3737L19.3737 17.9596L27.3737 25.9596Z" fill="#242323"/>
</svg>
